<?xml version="1.0" encoding="UTF-8"?>
<svg width="40px" height="46px" viewBox="0 0 40 46" version="1.1" xmlns="http://www.w3.org/2000/svg" xmlns:xlink="http://www.w3.org/1999/xlink">
    <!-- Generator: Sketch 49.2 (51160) - http://www.bohemiancoding.com/sketch -->
    <title>RS_Boycott_Icon</title>
    <desc>Created with Sketch.</desc>
    <defs></defs>
    <g id="Home-Page" stroke="none" stroke-width="1" fill="none" fill-rule="evenodd">
        <g id="How-It-Works-(For-Individuals)-022218" transform="translate(-932.000000, -701.000000)" fill="#076F8A" fill-rule="nonzero">
            <g id="RS_Boycott_Icon" transform="translate(932.000000, 701.000000)">
                <path d="M35.0113865,12.4561138 L19.8865093,3.70967742 L3.2075015,13.3548387 L3.2075015,30.8477115 L35.0113865,12.4561138 Z M36.565517,14.9842421 L4.61633393,33.459863 L19.8865093,42.2903226 L36.565517,32.6451613 L36.565517,14.9842421 Z M19.8865093,0 L39.7730185,11.5 L39.7730185,34.5 L19.8865093,46 L1.25002889e-14,34.5 L0,11.5 L19.8865093,0 Z" id="Combined-Shape"></path>
                <path d="M20.851872,30.4193548 L9.62962963,30.4193548 L9.62962963,25.9677419 L5.18518519,25.9677419 L5.18518519,14.8387097 L30.3703704,14.8387097 L30.3703704,19.2903226 L34.8148148,19.2903226 L34.8148148,30.4193548 L31.7407206,30.4193548 C31.2259758,32.9592675 28.9840273,34.8709677 26.2962963,34.8709677 C23.6085653,34.8709677 21.3666168,32.9592675 20.851872,30.4193548 Z M31.7407206,28.1935484 L32.5925926,28.1935484 L32.5925926,21.516129 L11.8518519,21.516129 L11.8518519,28.1935484 L20.851872,28.1935484 C21.3666168,25.6536358 23.6085653,23.7419355 26.2962963,23.7419355 C28.9840273,23.7419355 31.2259758,25.6536358 31.7407206,28.1935484 Z M28.1481481,19.2903226 L28.1481481,17.0645161 L7.40740741,17.0645161 L7.40740741,23.7419355 L9.62962963,23.7419355 L9.62962963,19.2903226 L28.1481481,19.2903226 Z M26.2962963,32.6451613 C28.1372455,32.6451613 29.6296296,31.1503701 29.6296296,29.3064516 C29.6296296,27.4625332 28.1372455,25.9677419 26.2962963,25.9677419 C24.4553471,25.9677419 22.962963,27.4625332 22.962963,29.3064516 C22.962963,31.1503701 24.4553471,32.6451613 26.2962963,32.6451613 Z" id="Combined-Shape"></path>
                <path d="M27.0106343,29.0467742 L26.4274093,28.8815249 L26.4274093,27.8900293 C26.6606993,27.8900293 26.6840283,27.9136364 26.8006733,27.9608504 C26.9173183,28.0080645 27.0339633,28.0552786 27.1272793,28.1497068 L27.7105042,27.4178886 C27.5238722,27.2762464 27.3372403,27.1818182 27.0806213,27.1109971 C26.8473313,27.063783 26.6373703,27.0165689 26.4040803,27.0165689 L26.4040803,26.7096774 L25.9375004,26.7096774 L25.9375004,27.0401759 C25.7042104,27.063783 25.6108944,27.1109971 25.4475914,27.1818182 C25.2842884,27.2526393 25.1443144,27.3470674 25.0043404,27.4651026 C24.8643664,27.5831378 24.7710504,27.701173 24.7010634,27.8664223 C24.6310764,28.0316716 24.5844184,28.1969209 24.5844184,28.3857771 C24.5844184,28.6926686 24.6777344,28.9523461 24.8177084,29.1175953 C24.9810114,29.3064516 25.1909724,29.4480938 25.4942494,29.542522 L25.9141713,29.6841642 L25.9141713,30.7228739 C25.6808813,30.6992668 25.6108944,30.6756598 25.4709204,30.6284458 C25.3309464,30.5812317 25.2143014,30.4868035 25.0976564,30.3451613 L24.4444444,31.0769794 C24.6544054,31.2658358 24.8643664,31.383871 25.1209854,31.4782991 C25.3776044,31.5491203 25.6808813,31.5963343 25.9141713,31.5963343 L25.9141713,31.9032258 L26.3807513,31.9032258 L26.3807513,31.5727273 C26.6140413,31.5491203 26.7540153,31.5019062 26.9406473,31.4310851 C27.1272793,31.3602639 27.2672533,31.2658358 27.4072273,31.1478006 C27.5472013,31.0297654 27.6405173,30.8881232 27.7338333,30.7228739 C27.8038202,30.5576246 27.8504782,30.3687683 27.8504782,30.156305 C27.8504782,29.8730206 27.7804913,29.6369501 27.6171882,29.4480938 C27.5005433,29.2592375 27.2905823,29.1412023 27.0106343,29.0467742 Z M25.9608293,28.7870968 C25.9608293,28.7870968 25.9141713,28.7634897 25.8675133,28.7634897 C25.8208553,28.7398827 25.7741973,28.7398827 25.7275393,28.6926686 C25.6808813,28.6690616 25.6342234,28.6218475 25.6108944,28.5746335 C25.5642364,28.5274194 25.5642364,28.4565983 25.5642364,28.3621701 C25.5642364,28.2205278 25.5875654,28.1260997 25.6808813,28.0788856 C25.7741973,28.0080645 25.9608293,27.9844575 25.9608293,27.9372434 L25.9608293,28.7870968 Z M26.8939893,30.4395894 C26.8706603,30.4868035 26.8240023,30.5340176 26.7773443,30.5812317 C26.7306863,30.6284458 26.6840283,30.6520528 26.6140413,30.6756598 C26.5440543,30.6992668 26.4274093,30.7228739 26.4274093,30.7228739 L26.4274093,29.7785923 L26.5440543,29.8258065 C26.5907123,29.8494135 26.6373703,29.8730206 26.6840283,29.8966275 C26.7306863,29.9202346 26.7773443,29.9438416 26.8006733,29.9674487 C26.8473313,29.9910557 26.8706603,30.0382698 26.8939893,30.0854839 C26.9173183,30.132698 26.9173183,30.179912 26.9173183,30.2507332 C26.9406473,30.3215542 26.9173183,30.3687683 26.8939893,30.4395894 Z" id="Shape-Copy-6"></path>
            </g>
        </g>
    </g>
</svg>