<?xml version="1.0" encoding="UTF-8"?>
<svg width="33px" height="50px" viewBox="0 0 33 50" version="1.1" xmlns="http://www.w3.org/2000/svg" xmlns:xlink="http://www.w3.org/1999/xlink">
    <!-- Generator: Sketch 49.2 (51160) - http://www.bohemiancoding.com/sketch -->
    <title>RS_Pledge_Icon</title>
    <desc>Created with Sketch.</desc>
    <defs></defs>
    <g id="Home-Page" stroke="none" stroke-width="1" fill="none" fill-rule="evenodd">
        <g id="How-It-Works-(For-Individuals)-022218" transform="translate(-221.000000, -1079.000000)" fill="#076F8A">
            <path d="M241.210526,1085.77163 L241.210526,1105.27119 L238.684211,1105.27119 L238.684211,1081.53434 L235.315789,1081.53434 L235.315789,1105.27119 L232.789474,1105.27119 L232.789474,1084.92417 L229.421053,1084.92417 L229.421053,1089.17752 L229.445138,1089.17752 L229.445138,1091.70384 L229.421053,1091.70384 L229.421053,1106.11864 L226.894737,1106.11864 L226.894737,1091.70384 L223.526316,1091.70384 L223.526316,1117.59839 L226.366269,1126.46566 L244.261783,1126.46566 L250.473684,1116.97606 L250.473684,1096.78858 L247.105263,1096.78858 L247.105263,1114.5911 L247.107393,1114.59109 L246.261336,1116.71014 L244.155765,1116.29016 L244.579857,1114.59535 L245.843625,1114.59322 L244.578947,1114.59322 L244.578947,1085.77163 L241.210526,1085.77163 Z M241.210526,1083.24532 L244.578947,1083.24532 L244.578947,1083.23729 L247.105263,1083.23729 L247.105263,1083.24532 L247.129349,1083.24532 L247.129349,1085.77163 L247.105263,1085.77163 L247.105263,1094.26227 L250.473684,1094.26227 L250.473684,1094.25424 L253,1094.25424 L253,1094.26227 L253.024086,1094.26227 L253.024086,1096.78858 L253,1096.78858 L253,1117.12298 L253.027306,1117.13385 L245.486619,1128.84894 L245.486619,1128.99197 L245.394552,1128.99197 L245.393746,1128.99322 L245.392496,1128.99197 L224.814788,1128.99197 L224.802064,1128.99706 L224.8003,1128.99197 L224.723907,1128.99197 L224.723907,1128.77135 L220.98741,1117.98051 L221,1117.97843 L221,1089.16949 L223.526316,1089.16949 L223.526316,1089.17752 L226.894737,1089.17752 L226.894737,1084.92417 L226.870651,1084.92417 L226.870651,1082.39786 L226.894737,1082.39786 L226.894737,1082.38983 L229.421053,1082.38983 L229.421053,1082.39786 L232.789474,1082.39786 L232.789474,1081.53434 L232.765388,1081.53434 L232.765388,1079.00803 L232.789474,1079.00803 L232.789474,1079 L235.315789,1079 L235.315789,1079.00803 L238.684211,1079.00803 L238.684211,1079 L241.210526,1079 L241.210526,1083.24532 Z" id="RS_Pledge_Icon"></path>
        </g>
    </g>
</svg>