<?xml version="1.0" encoding="UTF-8"?>
<svg width="35px" height="40px" viewBox="0 0 35 40" version="1.1" xmlns="http://www.w3.org/2000/svg" xmlns:xlink="http://www.w3.org/1999/xlink">
    <!-- Generator: Sketch 49.2 (51160) - http://www.bohemiancoding.com/sketch -->
    <title>RS_Social_Icon</title>
    <desc>Created with Sketch.</desc>
    <defs></defs>
    <g id="Home-Page" stroke="none" stroke-width="1" fill="none" fill-rule="evenodd">
        <g id="How-It-Works-(For-Individuals)-022218" transform="translate(-576.000000, -902.000000)" fill="#076F8A">
            <g id="RS_Social_Icon" transform="translate(576.000000, 902.000000)">
                <path d="M19.0123457,22.8342252 L19.0123457,17.3833047 L12.6403223,13.7044153 L14.1218037,11.1384141 L20.5428681,14.8456173 L26.6116569,11.2962963 L34.2109681,15.7407407 L34.2109681,24.6296296 L26.6116569,29.0740741 L20.4113583,25.4478398 L13.9031339,29.2053649 L12.4216524,26.6393637 L19.0123457,22.8342252 Z M26.6116569,14.2592593 L21.5454494,17.2222222 L21.5454494,23.1481481 L26.6116569,26.1111111 L31.6778644,23.1481481 L31.6778644,17.2222222 L26.6116569,14.2592593 Z" id="Combined-Shape"></path>
                <path d="M7.59931124,22.2222222 L15.1986225,26.6666667 L15.1986225,35.5555556 L7.59931124,40 L2.44249065e-15,35.5555556 L-2.44249065e-15,26.6666667 L7.59931124,22.2222222 Z M7.59931124,25.1851852 L2.53310375,28.1481481 L2.53310375,34.0740741 L7.59931124,37.037037 L12.6655187,34.0740741 L12.6655187,28.1481481 L7.59931124,25.1851852 Z" id="Combined-Shape"></path>
                <path d="M7.59931124,0 L15.1986225,4.44444444 L15.1986225,13.3333333 L7.59931124,17.7777778 L2.44249065e-15,13.3333333 L-2.44249065e-15,4.44444444 L7.59931124,0 Z M7.59931124,2.96296296 L2.53310375,5.92592593 L2.53310375,11.8518519 L7.59931124,14.8148148 L12.6655187,11.8518519 L12.6655187,5.92592593 L7.59931124,2.96296296 Z" id="Combined-Shape"></path>
            </g>
        </g>
    </g>
</svg>