<?xml version="1.0" encoding="UTF-8"?>
<svg width="439px" height="291px" viewBox="0 0 439 291" version="1.1" xmlns="http://www.w3.org/2000/svg" xmlns:xlink="http://www.w3.org/1999/xlink">
    <!-- Generator: Sketch 49.3 (51167) - http://www.bohemiancoding.com/sketch -->
    <title>email illustration_Ind Copy</title>
    <desc>Created with Sketch.</desc>
    <defs>
        <rect id="path-1" x="0" y="0" width="420" height="208" rx="10.9859155"></rect>
    </defs>
    <g id="Home-Page" stroke="none" stroke-width="1" fill="none" fill-rule="evenodd">
        <g id="Artboard-12" transform="translate(-917.000000, -168.000000)">
            <g id="email-illustration_Ind-Copy" transform="translate(917.000000, 168.000000)">
                <polygon id="Shape" fill="#4CEFCE" fill-rule="nonzero" opacity="0.184556159" points="69.7029674 130 139.453709 170.226113 139.453709 250.773887 69.7029674 291 0 250.773887 0 170.226113"></polygon>
                <polygon id="Shape-Copy-2" fill="#4CEFCE" fill-rule="nonzero" opacity="0.184556159" points="219.702967 129 289.453709 169.226113 289.453709 249.773887 219.702967 290 150 249.773887 150 169.226113"></polygon>
                <polygon id="Shape" fill="#4CEFCE" fill-rule="nonzero" opacity="0.184556159" transform="translate(144.726855, 80.500000) scale(1, -1) translate(-144.726855, -80.500000) " points="144.702967 0 214.453709 40.2261128 214.453709 120.773887 144.702967 161 75 120.773887 75 40.2261128"></polygon>
                <g id="Group-Copy" transform="translate(19.000000, 50.000000)">
                    <g id="Rectangle-12-Copy-4">
                        <use fill="#FFFFFF" fill-rule="evenodd" xlink:href="#path-1"></use>
                        <rect stroke="#F0F0F0" stroke-width="2" x="1" y="1" width="418" height="206" rx="10.9859155"></rect>
                    </g>
                    <path d="M17.68,23.2 L17.68,21.04 L28.02,21.04 L28.02,23.2 L24.24,23.2 L24.24,35 L21.44,35 L21.44,23.2 L17.68,23.2 Z M35.26,32.78 C36.0466706,32.78 36.7233305,32.4900029 37.29,31.91 C37.8566695,31.3299971 38.14,30.5100053 38.14,29.45 C38.14,28.3899947 37.8600028,27.5733362 37.3,27 C36.7399972,26.4266638 36.0633373,26.14 35.27,26.14 C34.4766627,26.14 33.8066694,26.4266638 33.26,27 C32.7133306,27.5733362 32.44,28.393328 32.44,29.46 C32.44,30.526672 32.7133306,31.3466638 33.26,31.92 C33.8066694,32.4933362 34.4733294,32.78 35.26,32.78 Z M31.2,33.58 C30.1199946,32.5266614 29.58,31.1466752 29.58,29.44 C29.58,27.7333248 30.1266612,26.3600052 31.22,25.32 C32.3133388,24.2799948 33.6699919,23.76 35.29,23.76 C36.9100081,23.76 38.2666612,24.2799948 39.36,25.32 C40.4533388,26.3600052 41,27.7333248 41,29.44 C41,31.1466752 40.4500055,32.5266614 39.35,33.58 C38.2499945,34.6333386 36.8866748,35.16 35.26,35.16 C33.6333252,35.16 32.2800054,34.6333386 31.2,33.58 Z M46.12,26.34 C45.8133318,26.6466682 45.4333356,26.8 44.98,26.8 C44.5266644,26.8 44.1466682,26.6466682 43.84,26.34 C43.5333318,26.0333318 43.38,25.6566689 43.38,25.21 C43.38,24.7633311 43.5333318,24.3833349 43.84,24.07 C44.1466682,23.7566651 44.5266644,23.6 44.98,23.6 C45.4333356,23.6 45.8133318,23.7566651 46.12,24.07 C46.4266682,24.3833349 46.58,24.7633311 46.58,25.21 C46.58,25.6566689 46.4266682,26.0333318 46.12,26.34 Z M46.12,34.54 C45.8133318,34.8466682 45.4333356,35 44.98,35 C44.5266644,35 44.1466682,34.8466682 43.84,34.54 C43.5333318,34.2333318 43.38,33.8533356 43.38,33.4 C43.38,32.9466644 43.5333318,32.5666682 43.84,32.26 C44.1466682,31.9533318 44.5266644,31.8 44.98,31.8 C45.4333356,31.8 45.8133318,31.9533318 46.12,32.26 C46.4266682,32.5666682 46.58,32.9466644 46.58,33.4 C46.58,33.8533356 46.4266682,34.2333318 46.12,34.54 Z" id="To:" fill="#C7C7C7"></path>
                    <path d="M2,55 L419,55" id="Line" stroke="#F0F0F0" stroke-width="2" stroke-linecap="square"></path>
                    <rect id="Rectangle-8-Copy-5" fill="#F0F0F0" opacity="0.5" x="66" y="23" width="56" height="12" rx="5"></rect>
                    <rect id="Rectangle-8-Copy-12" fill="#F0F0F0" opacity="0.5" x="135" y="23" width="56" height="12" rx="5"></rect>
                    <rect id="Rectangle-8-Copy-13" fill="#F0F0F0" opacity="0.5" x="204" y="23" width="56" height="12" rx="5"></rect>
                    <rect id="Rectangle-8-Copy-14" fill="#F0F0F0" opacity="0.5" x="273" y="23" width="56" height="12" rx="5"></rect>
                    <rect id="Rectangle-8-Copy-15" fill="#F0F0F0" opacity="0.5" x="342" y="23" width="56" height="12" rx="5"></rect>
                    <rect id="Rectangle-8-Copy-6" fill="#F0F0F0" opacity="0.5" x="65" y="78" width="332" height="12" rx="5"></rect>
                    <rect id="Rectangle-8-Copy-7" fill="#F0F0F0" opacity="0.5" x="22" y="102" width="376" height="12" rx="5"></rect>
                    <rect id="Rectangle-8-Copy-8" fill="#F0F0F0" opacity="0.5" x="22" y="126" width="376" height="12" rx="5"></rect>
                    <rect id="Rectangle-8-Copy-9" fill="#F0F0F0" opacity="0.5" x="22" y="150" width="376" height="12" rx="5"></rect>
                    <rect id="Rectangle-8-Copy-10" fill="#F0F0F0" opacity="0.5" x="22" y="174" width="376" height="12" rx="5"></rect>
                </g>
            </g>
        </g>
    </g>
</svg>