<?xml version="1.0" encoding="UTF-8"?>
<svg width="496px" height="412px" viewBox="0 0 496 412" version="1.1" xmlns="http://www.w3.org/2000/svg" xmlns:xlink="http://www.w3.org/1999/xlink">
    <!-- Generator: Sketch 49.3 (51167) - http://www.bohemiancoding.com/sketch -->
    <title>email list illustration_Org Copy</title>
    <desc>Created with Sketch.</desc>
    <defs>
        <rect id="path-1" x="0" y="0" width="420" height="242" rx="10.9859155"></rect>
    </defs>
    <g id="Home-Page" stroke="none" stroke-width="1" fill="none" fill-rule="evenodd">
        <g id="Artboard-12" transform="translate(-174.000000, -113.000000)">
            <g id="email-list-illustration_Org-Copy" transform="translate(174.000000, 113.000000)">
                <g id="Group-14" transform="translate(351.000000, 266.500000) scale(1, -1) translate(-351.000000, -266.500000) translate(206.000000, 121.000000)" fill="#4CEFCE" fill-rule="nonzero" opacity="0.184556159">
                    <polygon id="Shape" points="69.7029674 130 139.453709 170.226113 139.453709 250.773887 69.7029674 291 0 250.773887 0 170.226113"></polygon>
                    <polygon id="Shape-Copy-2" points="219.702967 129 289.453709 169.226113 289.453709 249.773887 219.702967 290 150 249.773887 150 169.226113"></polygon>
                    <polygon id="Shape" transform="translate(144.726855, 80.500000) scale(1, -1) translate(-144.726855, -80.500000) " points="144.702967 0 214.453709 40.2261128 214.453709 120.773887 144.702967 161 75 120.773887 75 40.2261128"></polygon>
                </g>
                <g id="Group-12">
                    <g id="Rectangle-12-Copy-4">
                        <use fill="#FFFFFF" fill-rule="evenodd" xlink:href="#path-1"></use>
                        <rect stroke="#F0F0F0" stroke-width="2" x="1" y="1" width="418" height="240" rx="10.9859155"></rect>
                    </g>
                    <path d="M26.56,21 L26.56,23.16 L21.32,23.16 L21.32,26.82 L25.96,26.82 L25.96,28.98 L21.32,28.98 L21.32,32.84 L26.56,32.84 L26.56,35 L18.5,35 L18.5,21 L26.56,21 Z M32.42,23.92 L32.42,25.58 C33.1266702,24.3666606 34.2733254,23.76 35.86,23.76 C36.7000042,23.76 37.4499967,23.9533314 38.11,24.34 C38.7700033,24.7266686 39.2799982,25.2799964 39.64,26 C40.0266686,25.3066632 40.5566633,24.760002 41.23,24.36 C41.9033367,23.959998 42.6599958,23.76 43.5,23.76 C44.8200066,23.76 45.8833293,24.1733292 46.69,25 C47.4966707,25.8266708 47.9,26.9866592 47.9,28.48 L47.9,35 L45.1,35 L45.1,28.88 C45.1,28.013329 44.8800022,27.3500023 44.44,26.89 C43.9999978,26.4299977 43.4000038,26.2 42.64,26.2 C41.8799962,26.2 41.2766689,26.4299977 40.83,26.89 C40.3833311,27.3500023 40.16,28.013329 40.16,28.88 L40.16,35 L37.36,35 L37.36,28.88 C37.36,28.013329 37.1400022,27.3500023 36.7,26.89 C36.2599978,26.4299977 35.6600038,26.2 34.9,26.2 C34.1399962,26.2 33.5366689,26.4299977 33.09,26.89 C32.6433311,27.3500023 32.42,28.013329 32.42,28.88 L32.42,35 L29.6,35 L29.6,23.92 L32.42,23.92 Z M58.02,31.86 C58.6066696,31.2733304 58.9,30.4733384 58.9,29.46 C58.9,28.4466616 58.6066696,27.6500029 58.02,27.07 C57.4333304,26.4899971 56.7466706,26.2 55.96,26.2 C55.1733294,26.2 54.4900029,26.4866638 53.91,27.06 C53.3299971,27.6333362 53.04,28.4266616 53.04,29.44 C53.04,30.4533384 53.3333304,31.2533304 53.92,31.84 C54.5066696,32.4266696 55.1899961,32.72 55.97,32.72 C56.7500039,32.72 57.4333304,32.4333362 58.02,31.86 Z M51.66,33.56 C50.6733284,32.4799946 50.18,31.106675 50.18,29.44 C50.18,27.773325 50.6733284,26.4100053 51.66,25.35 C52.6466716,24.2899947 53.8999924,23.76 55.42,23.76 C56.9400076,23.76 58.099996,24.3866604 58.9,25.64 L58.9,23.92 L61.7,23.92 L61.7,35 L58.9,35 L58.9,33.14 C58.0599958,34.4866734 56.8933408,35.16 55.4,35.16 C53.9066592,35.16 52.660005,34.626672 51.66,33.56 Z M67.98,21.1 C67.98,21.5800024 67.813335,21.986665 67.48,22.32 C67.146665,22.653335 66.7433357,22.82 66.27,22.82 C65.7966643,22.82 65.393335,22.653335 65.06,22.32 C64.726665,21.986665 64.56,21.5800024 64.56,21.1 C64.56,20.6199976 64.726665,20.213335 65.06,19.88 C65.393335,19.546665 65.7966643,19.38 66.27,19.38 C66.7433357,19.38 67.146665,19.546665 67.48,19.88 C67.813335,20.213335 67.98,20.6199976 67.98,21.1 Z M64.86,35 L64.86,23.92 L67.68,23.92 L67.68,35 L64.86,35 Z M70.84,35 L70.84,20.2 L73.66,20.2 L73.66,35 L70.84,35 Z M82.98,21.04 L85.8,21.04 L85.8,32.86 L90.28,32.86 L90.28,35 L82.98,35 L82.98,21.04 Z M95.46,21.1 C95.46,21.5800024 95.293335,21.986665 94.96,22.32 C94.626665,22.653335 94.2233357,22.82 93.75,22.82 C93.2766643,22.82 92.873335,22.653335 92.54,22.32 C92.206665,21.986665 92.04,21.5800024 92.04,21.1 C92.04,20.6199976 92.206665,20.213335 92.54,19.88 C92.873335,19.546665 93.2766643,19.38 93.75,19.38 C94.2233357,19.38 94.626665,19.546665 94.96,19.88 C95.293335,20.213335 95.46,20.6199976 95.46,21.1 Z M92.34,35 L92.34,23.92 L95.16,23.92 L95.16,35 L92.34,35 Z M97.7,27.16 C97.7,26.1999952 98.1066626,25.3933366 98.92,24.74 C99.7333374,24.0866634 100.813327,23.76 102.16,23.76 C103.506673,23.76 104.586663,24.0833301 105.4,24.73 C106.213337,25.3766699 106.646666,26.2533278 106.7,27.36 L103.82,27.36 C103.74,26.426662 103.166672,25.96 102.1,25.96 C101.566664,25.96 101.153335,26.0666656 100.86,26.28 C100.566665,26.4933344 100.42,26.7866648 100.42,27.16 C100.42,27.5333352 100.639998,27.8266656 101.08,28.04 C101.520002,28.2533344 102.05333,28.4199994 102.68,28.54 C103.30667,28.6600006 103.929997,28.8099991 104.55,28.99 C105.170003,29.1700009 105.699998,29.4899977 106.14,29.95 C106.580002,30.4100023 106.8,31.0199962 106.8,31.78 C106.8,32.780005 106.376671,33.5933302 105.53,34.22 C104.683329,34.8466698 103.60334,35.16 102.29,35.16 C100.97666,35.16 99.9000042,34.8500031 99.06,34.23 C98.2199958,33.6099969 97.7600004,32.7200058 97.68,31.56 L100.56,31.56 C100.666667,32.493338 101.259995,32.96 102.34,32.96 C102.860003,32.96 103.279998,32.8433345 103.6,32.61 C103.920002,32.3766655 104.08,32.0700019 104.08,31.69 C104.08,31.3099981 103.860002,31.0100011 103.42,30.79 C102.979998,30.5699989 102.44667,30.4000006 101.82,30.28 C101.19333,30.1599994 100.570003,30.0133342 99.95,29.84 C99.3299969,29.6666658 98.8000022,29.3566689 98.36,28.91 C97.9199978,28.4633311 97.7,27.8800036 97.7,27.16 Z M113.66,32.64 L115,32.64 L115,35 L113.22,35 C112.086661,35 111.213336,34.7400026 110.6,34.22 C109.986664,33.6999974 109.68,32.840006 109.68,31.64 L109.68,26.22 L108.5,26.22 L108.5,23.92 L109.68,23.92 L109.68,21.18 L112.5,21.18 L112.5,23.92 L114.98,23.92 L114.98,26.22 L112.5,26.22 L112.5,31.64 C112.5,32.0000018 112.586666,32.2566659 112.76,32.41 C112.933334,32.5633341 113.233331,32.64 113.66,32.64 Z" id="Email-List" fill="#C7C7C7"></path>
                    <path d="M2,55 L419,55" id="Line" stroke="#B6B6B6" stroke-width="2" opacity="0.25" stroke-linecap="square"></path>
                    <g id="Group-9" opacity="0.9" transform="translate(17.000000, 73.000000)" fill="#F0F0F0">
                        <rect id="Rectangle-8-Copy-5" opacity="0.5" x="0" y="0" width="116" height="12" rx="5"></rect>
                        <rect id="Rectangle-8-Copy-6" opacity="0.5" x="0" y="21" width="116" height="12" rx="5"></rect>
                        <rect id="Rectangle-8-Copy-7" opacity="0.5" x="0" y="41" width="116" height="12" rx="5"></rect>
                        <rect id="Rectangle-8-Copy-8" opacity="0.5" x="0" y="61" width="116" height="12" rx="5"></rect>
                        <rect id="Rectangle-8-Copy-9" opacity="0.5" x="0" y="81" width="116" height="12" rx="5"></rect>
                        <rect id="Rectangle-8-Copy-10" opacity="0.5" x="0" y="101" width="116" height="12" rx="5"></rect>
                        <rect id="Rectangle-8-Copy-11" opacity="0.5" x="0" y="121" width="116" height="12" rx="5"></rect>
                        <rect id="Rectangle-8-Copy-12" opacity="0.5" x="0" y="140" width="116" height="12" rx="5"></rect>
                    </g>
                    <g id="Group-11" opacity="0.9" transform="translate(145.000000, 73.000000)" fill="#F0F0F0">
                        <rect id="Rectangle-8-Copy-5" opacity="0.5" x="0" y="0" width="258" height="12" rx="5"></rect>
                        <rect id="Rectangle-8-Copy-6" opacity="0.5" x="0" y="21" width="258" height="12" rx="5"></rect>
                        <rect id="Rectangle-8-Copy-7" opacity="0.5" x="0" y="41" width="258" height="12" rx="5"></rect>
                        <rect id="Rectangle-8-Copy-8" opacity="0.5" x="0" y="61" width="258" height="12" rx="5"></rect>
                        <rect id="Rectangle-8-Copy-9" opacity="0.5" x="0" y="81" width="258" height="12" rx="5"></rect>
                        <rect id="Rectangle-8-Copy-10" opacity="0.5" x="0" y="101" width="258" height="12" rx="5"></rect>
                        <rect id="Rectangle-8-Copy-11" opacity="0.5" x="0" y="121" width="258" height="12" rx="5"></rect>
                        <rect id="Rectangle-8-Copy-12" opacity="0.5" x="0" y="140" width="258" height="12" rx="5"></rect>
                    </g>
                </g>
            </g>
        </g>
    </g>
</svg>