<?xml version="1.0" encoding="UTF-8" standalone="no"?>
<svg width="84px" height="87px" viewBox="0 0 84 87" version="1.1" xmlns="http://www.w3.org/2000/svg" xmlns:xlink="http://www.w3.org/1999/xlink">
    <!-- Generator: Sketch 42 (36781) - http://www.bohemiancoding.com/sketch -->
    <title>Group</title>
    <desc>Created with Sketch.</desc>
    <defs></defs>
    <g id="Discover---done" stroke="none" stroke-width="1" fill="none" fill-rule="evenodd">
        <g id="Assets" transform="translate(-243.000000, -1405.000000)">
            <g id="Group" transform="translate(243.000000, 1405.000000)">
                <path d="M79.467,55.466 L79.467,8.174 C79.467,3.667 75.906,0 71.529,0 C67.152,0 63.591,3.667 63.591,8.174 L63.591,29.096 C62.594,28.631 61.496,28.356 60.332,28.356 C56.951,28.356 54.078,30.554 52.936,33.626 C51.802,32.975 50.52,32.572 49.136,32.572 C45.894,32.572 43.107,34.612 41.876,37.519 C40.711,36.888 39.378,36.499 37.939,36.499 C33.562,36.499 30,39.842 30,43.951 L30,55.47 L30,58.447 L30,67.211 C30,75.261 35.789,85.059 52.102,86.178 L53.173,86.262 C54.57,86.378 56.389,86.528 58.415,86.528 C63.6,86.528 70.132,85.543 74.347,80.467 C78.233,75.788 80.134,73.307 82.033,69.192 C84.272,64.34 82.709,58.903 80.009,56.039 L79.467,55.466 L79.467,55.466 Z M68.27,8.174 C68.27,6.247 69.732,4.68 71.528,4.68 C73.325,4.68 74.786,6.247 74.786,8.174 L74.786,50.506 L68.655,44.007 C68.535,43.88 68.395,43.789 68.27,43.671 L68.27,36.53 L68.27,8.174 L68.27,8.174 Z M57.073,36.53 C57.073,34.604 58.535,33.036 60.331,33.036 C62.127,33.036 63.59,34.603 63.59,36.53 L63.59,41.484 C61.337,41.219 59.017,41.862 57.272,43.509 C57.196,43.581 57.145,43.667 57.072,43.741 L57.072,40.837 L57.072,36.53 L57.073,36.53 Z M57.073,54.858 C57.086,54.872 57.094,54.888 57.107,54.901 L61.818,59.894 C61.358,60.149 60.854,60.305 60.332,60.305 C58.535,60.305 57.074,58.738 57.074,56.811 L57.074,54.858 L57.073,54.858 Z M45.876,40.837 C45.876,38.86 47.338,37.253 49.135,37.253 C50.932,37.253 52.393,38.861 52.393,40.837 L52.393,56.811 L52.393,57.636 C52.393,59.612 50.931,61.22 49.135,61.22 C47.339,61.22 45.876,59.612 45.876,57.636 L45.876,43.951 L45.876,40.837 L45.876,40.837 Z M34.679,43.951 C34.679,42.422 36.141,41.179 37.938,41.179 C39.735,41.179 41.196,42.423 41.196,43.951 L41.196,57.636 L41.196,58.448 C41.196,59.977 39.734,61.22 37.938,61.22 C36.142,61.22 34.679,59.977 34.679,58.448 L34.679,55.471 L34.679,43.951 L34.679,43.951 Z M77.784,67.233 C76.197,70.671 74.709,72.706 70.747,77.478 C66.44,82.664 57.736,81.944 53.557,81.599 C53.137,81.565 52.756,81.533 52.421,81.51 C35.959,80.381 34.679,70.281 34.679,67.212 L34.679,65.225 C35.676,65.649 36.774,65.899 37.938,65.899 C40.188,65.899 42.212,65.007 43.657,63.59 C45.084,65.012 47.008,65.899 49.135,65.899 C51.555,65.899 53.699,64.742 55.156,62.958 C56.55,64.204 58.345,64.985 60.331,64.985 C61.826,64.985 63.284,64.554 64.548,63.738 C64.737,63.616 64.893,63.465 65.034,63.304 L65.368,63.658 C66.255,64.599 67.737,64.641 68.676,63.755 C69.616,62.868 69.659,61.387 68.773,60.447 L60.512,51.69 C59.19,50.289 59.178,48.144 60.485,46.912 C61.791,45.679 63.932,45.816 65.253,47.217 L76.605,59.25 C78.208,60.953 79.089,64.404 77.784,67.233 L77.784,67.233 Z" id="Shape" fill="#076F8A"></path>
                <path d="M45.141537,17.7840625 C45.424537,19.1020625 46.588537,20.0050625 47.884537,20.0050625 C48.079537,20.0050625 48.276537,19.9840625 48.474537,19.9430625 C49.990537,19.6190625 50.957537,18.1260625 50.633537,16.6100625 L47.554537,2.22006251 C47.229537,0.704062507 45.736537,-0.257937493 44.221537,0.0610625073 C42.705537,0.385062507 41.738537,1.87806251 42.062537,3.39406251 L45.141537,17.7840625 L45.141537,17.7840625 Z" id="Shape" fill="#5BCBBB"></path>
                <path d="M30.3860245,24.9610494 L19.8430245,13.8730494 C18.7740245,12.7500494 16.9970245,12.7040494 15.8730245,13.7720494 C14.7490245,14.8410494 14.7050245,16.6180494 15.7720245,17.7420494 L26.3140245,28.8290494 C26.8660245,29.4090494 27.6070245,29.7020494 28.3500245,29.7020494 C29.0450245,29.7020494 29.7410245,29.4460494 30.2840245,28.9300494 C31.4090245,27.8620494 31.4530245,26.0840494 30.3860245,24.9610494 L30.3860245,24.9610494 Z" id="Shape" fill="#5BCBBB"></path>
                <path d="M1.9349477,43.476287 L16.5009477,48.247287 C16.7909477,48.342287 17.0849477,48.387287 17.3749477,48.387287 C18.5559477,48.387287 19.6549477,47.636287 20.0419477,46.452287 C20.5249477,44.979287 19.7209477,43.392287 18.2479477,42.910287 L3.6819477,38.139287 C2.2119477,37.659287 0.622947701,38.459287 0.139947701,39.933287 C-0.342052299,41.407287 0.460947701,42.993287 1.9349477,43.476287 L1.9349477,43.476287 Z" id="Shape" fill="#5BCBBB"></path>
                <path d="M17.0807668,64.073772 L2.16776679,67.568772 C0.65776679,67.921772 -0.27923321,69.433772 0.0747667901,70.942772 C0.37776679,72.237772 1.53176679,73.110772 2.80576679,73.110772 C3.01776679,73.110772 3.23276679,73.086772 3.44876679,73.035772 L18.3617668,69.540772 C19.8717668,69.187772 20.8087668,67.675772 20.4547668,66.166772 C20.1007668,64.657772 18.5937668,63.722772 17.0807668,64.073772 L17.0807668,64.073772 Z" id="Shape" fill="#5BCBBB"></path>
            </g>
        </g>
    </g>
</svg>