<?xml version="1.0" encoding="UTF-8"?>
<svg width="1344px" height="630px" viewBox="0 0 1344 630" version="1.1" xmlns="http://www.w3.org/2000/svg" xmlns:xlink="http://www.w3.org/1999/xlink">
    <!-- Generator: Sketch 49 (51002) - http://www.bohemiancoding.com/sketch -->
    <title>Group 6</title>
    <desc>Created with Sketch.</desc>
    <defs></defs>
    <g id="Home-Page" stroke="none" stroke-width="1" fill="none" fill-rule="evenodd" opacity="0.184556159">
        <g id="Artboard-9" transform="translate(-347.000000, -1335.000000)" fill="#4CEFCE" fill-rule="nonzero">
            <g id="Group-6" transform="translate(347.000000, 1335.000000)">
                <g id="Group-4" transform="translate(0.000000, 131.000000)">
                    <polygon id="Shape-Copy-2" points="127.794847 119 189.632047 154.884203 189.632047 226.737844 127.794847 262.622047 66 226.737844 66 154.884203"></polygon>
                    <polygon id="Shape-Copy-3" points="61.7948466 237 123.632047 272.884203 123.632047 344.737844 61.7948466 380.622047 0 344.737844 0 272.884203"></polygon>
                    <polygon id="Shape-Copy-5" points="128.794847 355 190.632047 390.884203 190.632047 462.737844 128.794847 498.622047 67 462.737844 67 390.884203"></polygon>
                    <polygon id="Shape-Copy-2" points="262.794847 119 324.632047 154.884203 324.632047 226.737844 262.794847 262.622047 201 226.737844 201 154.884203"></polygon>
                    <polygon id="Shape-Copy-4" points="196.794847 237 258.632047 272.884203 258.632047 344.737844 196.794847 380.622047 135 344.737844 135 272.884203"></polygon>
                    <polygon id="Shape-Copy-6" points="263.794847 355 325.632047 390.884203 325.632047 462.737844 263.794847 498.622047 202 462.737844 202 390.884203"></polygon>
                    <polygon id="Shape-Copy-7" points="194.794847 0 256.632047 35.8842029 256.632047 107.737844 194.794847 143.622047 133 107.737844 133 35.8842029"></polygon>
                </g>
                <g id="Group-5" transform="translate(1019.000000, 0.000000)">
                    <polygon id="Shape-Copy-2" points="127.794847 0 189.632047 35.8842029 189.632047 107.737844 127.794847 143.622047 66 107.737844 66 35.8842029"></polygon>
                    <polygon id="Shape-Copy-3" points="61.7948466 118 123.632047 153.884203 123.632047 225.737844 61.7948466 261.622047 0 225.737844 0 153.884203"></polygon>
                    <polygon id="Shape-Copy-2" points="262.794847 0 324.632047 35.8842029 324.632047 107.737844 262.794847 143.622047 201 107.737844 201 35.8842029"></polygon>
                    <polygon id="Shape-Copy-4" points="196.794847 118 258.632047 153.884203 258.632047 225.737844 196.794847 261.622047 135 225.737844 135 153.884203"></polygon>
                </g>
            </g>
        </g>
    </g>
</svg>