<?xml version="1.0" encoding="UTF-8"?>
<svg width="1344px" height="380px" viewBox="0 0 1344 380" version="1.1" xmlns="http://www.w3.org/2000/svg" xmlns:xlink="http://www.w3.org/1999/xlink">
    <!-- Generator: Sketch 49 (51002) - http://www.bohemiancoding.com/sketch -->
    <title>Group</title>
    <desc>Created with Sketch.</desc>
    <defs></defs>
    <g id="Home-Page" stroke="none" stroke-width="1" fill="none" fill-rule="evenodd" opacity="0.184556159">
        <g id="Artboard-9" transform="translate(-347.000000, -767.000000)" fill="#4CEFCE" fill-rule="nonzero">
            <g id="Group" transform="translate(347.000000, 767.000000)">
                <g id="Group-3" transform="translate(67.798220, 117.690289)">
                    <polygon id="Shape-Copy" points="61.7948466 0 123.632047 35.8842029 123.632047 107.737844 61.7948466 143.622047 0 107.737844 0 35.8842029"></polygon>
                    <polygon id="Shape-Copy-2" points="197.391286 0 259.228487 35.8842029 259.228487 107.737844 197.391286 143.622047 135.596439 107.737844 135.596439 35.8842029"></polygon>
                    <polygon id="Shape-Copy-2" points="332.987725 0 394.824926 35.8842029 394.824926 107.737844 332.987725 143.622047 271.192878 107.737844 271.192878 35.8842029"></polygon>
                    <polygon id="Shape" transform="translate(739.798220, 71.811024) scale(-1, 1) translate(-739.798220, -71.811024) " points="739.777042 0 801.614243 35.8842029 801.614243 107.737844 739.777042 143.622047 677.982196 107.737844 677.982196 35.8842029"></polygon>
                    <polygon id="Shape-Copy-2" transform="translate(604.201780, 71.811024) scale(-1, 1) translate(-604.201780, -71.811024) " points="604.180603 0 666.017804 35.8842029 666.017804 107.737844 604.180603 143.622047 542.385757 107.737844 542.385757 35.8842029"></polygon>
                    <polygon id="Shape-Copy" transform="translate(1010.991098, 71.811024) scale(-1, 1) translate(-1010.991098, -71.811024) " points="1010.96992 0 1072.80712 35.8842029 1072.80712 107.737844 1010.96992 143.622047 949.175074 107.737844 949.175074 35.8842029"></polygon>
                    <polygon id="Shape-Copy-2" transform="translate(875.394659, 71.811024) scale(-1, 1) translate(-875.394659, -71.811024) " points="875.373482 0 937.210682 35.8842029 937.210682 107.737844 875.373482 143.622047 813.578635 107.737844 813.578635 35.8842029"></polygon>
                </g>
                <polygon id="Shape" points="61.7948466 0 123.632047 35.8842029 123.632047 107.737844 61.7948466 143.622047 0 107.737844 0 35.8842029"></polygon>
                <polygon id="Shape-Copy-2" points="197.391286 0 259.228487 35.8842029 259.228487 107.737844 197.391286 143.622047 135.596439 107.737844 135.596439 35.8842029"></polygon>
                <polygon id="Shape" transform="translate(1146.587537, 71.811024) scale(-1, 1) translate(-1146.587537, -71.811024) " points="1146.56636 0 1208.40356 35.8842029 1208.40356 107.737844 1146.56636 143.622047 1084.77151 107.737844 1084.77151 35.8842029"></polygon>
                <polygon id="Shape-Copy-2" transform="translate(1010.991098, 71.811024) scale(-1, 1) translate(-1010.991098, -71.811024) " points="1010.96992 0 1072.80712 35.8842029 1072.80712 107.737844 1010.96992 143.622047 949.175074 107.737844 949.175074 35.8842029"></polygon>
                <g id="Group-2" transform="translate(271.192878, 236.377953)">
                    <polygon id="Shape-Copy-2" points="61.7948466 0 123.632047 35.8842029 123.632047 107.737844 61.7948466 143.622047 0 107.737844 0 35.8842029"></polygon>
                    <polygon id="Shape-Copy" transform="translate(468.605341, 71.811024) scale(-1, 1) translate(-468.605341, -71.811024) " points="468.584164 0 530.421365 35.8842029 530.421365 107.737844 468.584164 143.622047 406.789318 107.737844 406.789318 35.8842029"></polygon>
                    <polygon id="Shape-Copy-2" transform="translate(333.008902, 71.811024) scale(-1, 1) translate(-333.008902, -71.811024) " points="332.987725 0 394.824926 35.8842029 394.824926 107.737844 332.987725 143.622047 271.192878 107.737844 271.192878 35.8842029"></polygon>
                    <polygon id="Shape-Copy-2" transform="translate(197.412463, 71.811024) scale(-1, 1) translate(-197.412463, -71.811024) " points="197.391286 0 259.228487 35.8842029 259.228487 107.737844 197.391286 143.622047 135.596439 107.737844 135.596439 35.8842029"></polygon>
                    <polygon id="Shape-Copy" transform="translate(1010.991098, 71.811024) scale(-1, 1) translate(-1010.991098, -71.811024) " points="1010.96992 0 1072.80712 35.8842029 1072.80712 107.737844 1010.96992 143.622047 949.175074 107.737844 949.175074 35.8842029"></polygon>
                    <polygon id="Shape-Copy-2" transform="translate(875.394659, 71.811024) scale(-1, 1) translate(-875.394659, -71.811024) " points="875.373482 0 937.210682 35.8842029 937.210682 107.737844 875.373482 143.622047 813.578635 107.737844 813.578635 35.8842029"></polygon>
                </g>
            </g>
        </g>
    </g>
</svg>