<?xml version="1.0" encoding="UTF-8" standalone="no"?>
<svg width="255px" height="255px" viewBox="0 0 255 255" version="1.1" xmlns="http://www.w3.org/2000/svg" xmlns:xlink="http://www.w3.org/1999/xlink">
    <!-- Generator: Sketch 42 (36781) - http://www.bohemiancoding.com/sketch -->
    <title>lock</title>
    <desc>Created with Sketch.</desc>
    <defs></defs>
    <g id="Dashboard-_-done" stroke="none" stroke-width="1" fill="none" fill-rule="evenodd">
        <g id="Assets" transform="translate(-361.000000, -1365.000000)">
            <g id="lock" transform="translate(368.000000, 1372.000000)">
                <ellipse id="Oval" stroke="#032A2F" stroke-width="13" fill="#F95607" cx="120.5" cy="120.5" rx="120.5" ry="120.5"></ellipse>
                <path d="M152.810189,155.570189 L139.59434,155.570189 L137.681132,152.317736 L139.59434,148.859245 L152.810189,148.859245 L152.810189,155.570189 Z M146.879245,171.449811 L135.002642,164.944906 L135.193962,161.118491 L138.255094,159.013962 L150.131698,165.710189 L146.879245,171.449811 Z M133.472075,181.781132 L126.775849,170.493208 L128.880377,167.240755 L132.515472,166.858113 L139.403019,178.528679 L133.472075,181.781132 Z M124.097358,133.170943 L120.653585,134.89283 L117.209811,133.170943 L117.209811,119.778491 L124.097358,119.778491 L124.097358,133.170943 Z M123.523396,184.459623 L116.82717,184.459623 L116.82717,171.06717 L120.079623,169.345283 L123.523396,171.06717 L123.523396,184.459623 Z M111.85283,136.997358 L108.217736,137.188679 L101.521509,125.518113 L107.261132,122.07434 L113.957358,133.936226 L111.85283,136.997358 Z M106.878491,181.589811 L101.138868,178.337358 L108.026415,166.666792 L111.661509,166.858113 L113.574717,170.301887 L106.878491,181.589811 Z M90.6015094,165.136226 L102.095472,158.44 L105.156604,160.544528 L105.539245,164.179623 L93.8539623,170.875849 L90.6015094,165.136226 Z M87.9230189,148.285283 L101.330189,148.285283 L103.052075,151.935094 L101.330189,155.187547 L87.9230189,155.187547 L87.9230189,148.285283 Z M94.06,132.788302 L105.921887,139.484528 L105.730566,143.119623 L102.286792,145.224151 L90.7928302,138.527925 L94.06,132.788302 Z M100.093962,77.8350943 C100.093962,66.3558491 109.277358,56.9811321 120.373962,56.9811321 C131.853208,56.9811321 141.419245,66.3558491 141.419245,77.8350943 L141.419245,110.050566 C135.076226,106.842264 127.89434,105.032075 120.270943,105.032075 C113.383396,105.032075 107.261132,106.386038 101.330189,108.873208 L100.093962,109.712075 L100.093962,77.8350943 Z M132.898113,137.38 L129.263019,137.188679 L127.158491,134.127547 L134.046038,122.456981 L139.609057,125.900755 L132.898113,137.38 Z M147.070566,133.170943 L150.323019,138.910566 L138.652453,145.606792 L135.576604,143.502264 L135.385283,139.86717 L147.070566,133.170943 Z M155.783019,118.527547 L155.783019,78.2177358 C155.783019,58.7030189 140.08,43 120.373962,43 C101.241887,43 85.1562264,58.7030189 85.1562264,78.2177358 L85.1562264,120.411321 C77.6358491,129.050189 73,140.323396 73,152.126415 C73,178.146038 94.2513208,199 120.270943,199 C146.305283,199 167.159245,178.146038 167.159245,152.126415 C167.159245,140.176226 162.773585,129.270943 155.488679,120.985283 C155.68,120.22 155.783019,119.395849 155.783019,118.527547 Z" id="Page-1" fill="#032A2F"></path>
            </g>
        </g>
    </g>
</svg>