<?xml version="1.0" encoding="UTF-8" standalone="no"?>
<svg width="255px" height="261px" viewBox="0 0 255 261" version="1.1" xmlns="http://www.w3.org/2000/svg" xmlns:xlink="http://www.w3.org/1999/xlink">
    <!-- Generator: Sketch 42 (36781) - http://www.bohemiancoding.com/sketch -->
    <title>lock</title>
    <desc>Created with Sketch.</desc>
    <defs></defs>
    <g id="Dashboard-_-done" stroke="none" stroke-width="1" fill="none" fill-rule="evenodd">
        <g id="Assets" transform="translate(-660.000000, -1358.000000)">
            <g id="lock" transform="translate(667.000000, 1365.000000)">
                <ellipse id="Oval" stroke="#032A2F" stroke-width="13" fill="#F95607" cx="120.5" cy="123.457667" rx="120.5" ry="123.457667"></ellipse>
                <path d="M189,149.429012 C189,176.246495 168.05629,197.737176 141.924674,197.737176 C115.793058,197.737176 94.4636906,176.244979 94.4636906,149.429012 C94.4636906,136.611632 99.6515957,124.38713 107.914417,115.316555 L107.914417,81.9925803 C107.914417,70.162319 98.6911462,60.500383 87.5469763,60.500383 C76.0186266,60.500383 66.4111759,70.162319 66.4111759,81.9925803 L66.4111759,94.4142031 C66.4111759,99.1466108 63.5283497,102.499175 59.1102818,102.499175 C54.6922139,102.499175 52,99.1466108 52,94.4142031 L52,82.385305 C52,62.272951 67.7558053,46.1045229 87.5469763,46.1045229 C106.761878,46.1045229 122.901863,62.272951 122.901863,82.385305 L122.901863,104.864621 C128.858127,102.302055 135.006482,100.919179 141.924674,100.919179 C168.057767,100.920695 189,122.611529 189,149.429012 L189,149.429012 Z M109.451136,152.58294 L122.901863,152.58294 L124.632149,149.231892 L122.901863,145.485086 L109.451136,145.485086 L109.451136,152.58294 L109.451136,152.58294 Z M127.129318,161.850635 L126.745138,158.103829 L123.670222,155.933988 L112.140395,162.836237 L115.407401,168.749852 L127.129318,161.850635 L127.129318,161.850635 Z M112.333962,135.427393 L123.862312,142.329642 L127.321408,140.159801 L127.513498,136.412995 L115.600969,129.512262 L112.333962,135.427393 L112.333962,135.427393 Z M135.20005,168.160006 L133.277673,164.610322 L129.626487,164.413201 L122.708295,176.442099 L128.47247,179.793147 L135.20005,168.160006 L135.20005,168.160006 Z M135.584229,130.696501 L128.858127,118.471999 L123.09543,122.021684 L129.820055,134.049066 L133.47124,133.851945 L135.584229,130.696501 L135.584229,130.696501 Z M145.19168,168.950005 L141.732584,167.174404 L138.465578,168.950005 L138.465578,182.752987 L145.19168,182.752987 L145.19168,168.950005 L145.19168,168.950005 Z M145.76795,116.105037 L138.851235,116.105037 L138.851235,129.90802 L142.310331,131.682104 L145.76795,129.90802 L145.76795,116.105037 L145.76795,116.105037 Z M154.221383,164.610322 L150.570197,165.004562 L148.457208,168.357127 L155.181833,179.991784 L161.138098,176.63922 L154.221383,164.610322 L154.221383,164.610322 Z M161.331665,122.414409 L155.75958,118.864724 L148.841388,130.893622 L150.955855,134.04755 L154.607041,134.246186 L161.331665,122.414409 L161.331665,122.414409 Z M159.987036,156.526866 L156.913597,158.695191 L156.721507,162.640633 L168.634037,169.344246 L171.901043,163.429115 L159.987036,156.526866 L159.987036,156.526866 Z M157.10421,136.808753 L157.296299,140.555558 L160.371216,142.723883 L172.091655,135.82315 L168.826127,129.90802 L157.10421,136.808753 L157.10421,136.808753 Z M174.588824,146.076448 L161.330188,146.076448 L159.409288,149.626133 L161.330188,152.978697 L174.588824,152.978697 L174.588824,146.076448 L174.588824,146.076448 Z" id="Shape" fill="#032A2F"></path>
            </g>
        </g>
    </g>
</svg>