<svg xmlns="http://www.w3.org/2000/svg" viewBox="0 0 44.66 72"><defs><style>.a{fill:#010101;}</style></defs><title>politics</title><path class="a" d="M55.35,66H16.65a2.82,2.82,0,0,0-3,3v3H58.33V69A2.82,2.82,0,0,0,55.35,66Z" transform="translate(-13.67)"/><path class="a" d="M16.65,48h38.7a3,3,0,0,0,0-6H16.65a3,3,0,0,0,0,6Z" transform="translate(-13.67)"/><path class="a" d="M16.65,52.5v9a1.49,1.49,0,1,0,3,0v-9a1.49,1.49,0,1,0-3,0Z" transform="translate(-13.67)"/><path class="a" d="M22.6,52.5v9a1.49,1.49,0,1,0,3,0v-9a1.49,1.49,0,1,0-3,0Z" transform="translate(-13.67)"/><path class="a" d="M28.56,52.5v9a1.49,1.49,0,1,0,3,0v-9a1.49,1.49,0,1,0-3,0Z" transform="translate(-13.67)"/><path class="a" d="M34.51,52.5v9a1.49,1.49,0,1,0,3,0v-9a1.49,1.49,0,1,0-3,0Z" transform="translate(-13.67)"/><path class="a" d="M40.47,52.5v9a1.49,1.49,0,1,0,3,0v-9a1.49,1.49,0,1,0-3,0Z" transform="translate(-13.67)"/><path class="a" d="M46.42,52.5v9a1.49,1.49,0,1,0,3,0v-9a1.49,1.49,0,1,0-3,0Z" transform="translate(-13.67)"/><path class="a" d="M52.37,52.5v9a1.49,1.49,0,1,0,3,0v-9a1.49,1.49,0,1,0-3,0Z" transform="translate(-13.67)"/><path class="a" d="M37.49,21V12H52.37l-6-6,6-6H36a1.41,1.41,0,0,0-1.49,1.5V21c-10.12.6-17.86,8.4-17.86,18h38.7C55.35,29.4,47.61,21.9,37.49,21Z" transform="translate(-13.67)"/></svg>