<?xml version="1.0" encoding="UTF-8"?>
<svg width="69px" height="85px" viewBox="0 0 69 85" version="1.1" xmlns="http://www.w3.org/2000/svg" xmlns:xlink="http://www.w3.org/1999/xlink">
    <!-- Generator: Sketch 43.1 (39012) - http://www.bohemiancoding.com/sketch -->
    <title>Page 1</title>
    <desc>Created with Sketch.</desc>
    <defs></defs>
    <g id="Kyle" stroke="none" stroke-width="1" fill="none" fill-rule="evenodd">
        <g id="No-Events-Found" transform="translate(-377.000000, -1490.000000)" fill="#696F8D">
            <g id="Apple-Core" transform="translate(117.000000, 1490.000000)">
                <g id="Page-1" transform="translate(260.000000, 0.000000)">
                    <path d="M40.7825,0.86375 C40.7825,0.86375 32.4125,17.075 51.24125,23.14 C51.24625,23.145 60.10875,6.465 40.7825,0.86375 Z" id="Fill-1"></path>
                    <path d="M48.7025,32.075 L48.4975,32.12375 C43.2525,11.245 20.9525,18.6575 20.9525,18.6575 C20.9525,18.6575 24.395,34.09625 19.15625,39.55125 C14.99625,43.88625 7.46625,45.97125 0.7775,46.70875 C0.7775,46.70875 -3.84125,67.84625 12.17875,71.7975 C12.355,71.84125 20.1525,92.08 37.70125,80.84 C37.945,80.7125 38.10125,80.57625 38.10125,80.57625 C38.10125,80.57625 35.235,78.70125 40.1575,68.59875 C42.2175,64.36 46.1925,59.63375 54.26375,59.32125 C62.79375,58.98875 62.8525,59.34625 63.0775,59.2625 C63.13625,59.24375 63.185,59.09125 63.22375,58.8775 C69.7375,41.60125 56.085,31.20125 48.7025,32.075 Z M14.2875,69.61875 C14.2875,69.61875 0.9575,67.8175 2.81875,52.085 C3.65375,53.2425 6.5775,56.52375 13.81875,58.0175 C13.81875,58.0175 15.93875,68.77 27.92625,71.06 C27.92625,71.06 29.635,74.81875 34.205,80.44875 C32.40875,82.63625 19.27375,83.79375 14.2875,69.61875 Z M60.29375,56.44 C58.2775,56.21625 47.6675,55.41 41.45125,62.495 C37.985,66.445 35.05,71.71375 35.10875,77.095 L35.10875,77.22125 C34.26375,76.3575 32.6325,74.13625 29.55625,68.515 C29.55625,68.515 19.68375,68.46625 15.60125,55.9125 C15.60125,55.9125 6.91,54.57 3.85375,48.88625 C3.81875,48.8275 3.79,48.775 3.76125,48.72125 C5.40125,48.40375 17.98,45.89875 21.55375,40.65375 C25.60125,34.71625 24.17625,23.6275 24.14125,22.25625 C24.14125,22.25625 34.49375,31.27 33.8875,36.035 C33.8875,36.035 44.17125,35.56125 48.00375,48.755 C48.00375,48.755 56.71,50.6 60.29375,56.44 Z M62.19875,54.53625 C60.9625,52.45125 57.73,48.56875 50.1375,46.71875 C50.1375,46.71875 47.15375,35.17625 36.25125,33.4475 C36.25125,33.4475 33.43375,25.17625 25.3325,19.85875 L25.89,20.01 C44.05375,17.28 46.65625,34.7025 46.65625,34.7025 C61.05125,33.4325 64.79125,51.10375 62.19875,54.53625 Z" id="Fill-2"></path>
                    <path d="M50.485,27.88125 C50.3475,28.4325 51.43625,30.235 51.98375,30.23875 C52.53,30.24375 60.055,23.955 65.87,28.94 C66.48,29.4625 72.4325,24.815 65.60125,23.47125 C59.03875,22.1875 51.095,25.44 50.485,27.88125 Z" id="Fill-3"></path>
                    <path d="M31.1975,56.5575 C31.3,57.475 36.3925,56.7875 36.1925,51.9675 C36.12875,50.56125 30.685,51.9575 31.1975,56.5575 Z" id="Fill-4"></path>
                    <path d="M26.8125,52.285 C26.915,53.2025 32.0075,52.515 31.8075,47.695 C31.74875,46.28875 26.3,47.685 26.8125,52.285 Z" id="Fill-5"></path>
                </g>
            </g>
        </g>
    </g>
</svg>