<?xml version="1.0" encoding="UTF-8"?>
<svg width="67px" height="79px" viewBox="0 0 67 79" version="1.1" xmlns="http://www.w3.org/2000/svg" xmlns:xlink="http://www.w3.org/1999/xlink">
    <!-- Generator: Sketch 43.1 (39012) - http://www.bohemiancoding.com/sketch -->
    <title>Page 1</title>
    <desc>Created with Sketch.</desc>
    <defs></defs>
    <g id="Kyle" stroke="none" stroke-width="1" fill="none" fill-rule="evenodd">
        <g id="No-Events-Found" transform="translate(-377.000000, -1730.000000)" fill="#696F8D">
            <g id="Banana" transform="translate(117.000000, 1730.000000)">
                <g id="Page-1" transform="translate(260.000000, 0.000000)">
                    <path d="M18.6117037,78.1523175 C8.98088889,78.1523175 2.64933333,75.2380952 2.36977778,75.1453016 C1.70992593,74.8606508 1.33214815,74.297619 1.13948148,73.6417937 L0.288222222,68.8453651 C0.195037037,68.375127 0.288222222,67.9048889 0.475851852,67.4346508 C4.25362963,60.2882857 11.5233333,57.4668571 19.2715556,54.4548254 C25.5036296,52.0108413 31.9271111,49.5656032 36.9301481,44.5798254 C46.8468148,34.7048254 43.7288889,22.4786349 43.2566667,20.7832698 L37.4955556,10.3452381 C37.1177778,9.59034921 37.1177778,8.64987302 37.6831852,7.99404762 C38.2485926,7.33822222 39.0998519,7.05357143 39.9511111,7.23915873 C41.3677778,7.61660317 42.4054074,7.61660317 43.2566667,7.05357143 C44.7665185,6.20588889 45.2387407,4.13934921 45.2387407,4.13934921 C45.5233333,3.01203175 46.5622222,2.35119048 47.693037,2.44398413 C48.8238519,2.6308254 49.5819259,3.66911111 49.3955556,4.7951746 C48.7357037,9.78220635 54.9677778,14.8570159 54.9677778,14.8570159 C62.4301481,21.1556984 66.3955556,28.3070794 66.8677778,36.2033175 C67.6245926,49.8402222 57.6097037,60.6556984 57.1374815,61.1259365 C42.5917778,74.8556349 28.5182963,77.8689206 19.2665185,78.0545079 C19.0839259,78.1523175 18.8975556,78.1523175 18.6117037,78.1523175 Z M5.10992593,71.6617778 C9.92533333,73.5427302 31.3667407,79.8426667 54.3142222,58.2117143 C54.3142222,58.2117143 63.4728148,48.3367143 62.8142222,36.4879683 C62.4351852,29.8105873 58.9432593,23.6046984 52.4253333,18.1486825 C52.2377037,17.9618413 48.1753333,14.7629683 46.1932593,10.2474286 C46.0056296,10.4330159 45.721037,10.5308254 45.5334074,10.7176667 C44.968,11.0951111 44.1167407,11.3734921 43.1722963,11.5653492 L47.2359259,18.9023175 C47.3291111,18.9951111 47.3291111,19.1869683 47.4222963,19.2797619 C47.6099259,19.9355873 52.4303704,35.2678571 40.1525926,47.4940476 C34.4859259,53.1369048 27.3081481,55.8655397 20.9778519,58.3095238 C13.9877037,61.0381587 7.94325926,63.3893492 4.73592593,68.7475556 L5.10992593,71.6617778 Z" id="Fill-1"></path>
                    <path d="M49.6851852,22.0083968 C49.592,22.0083968 49.592,22.0083968 49.6851852,22.0083968 L46.2864444,21.8215556 C45.1543704,21.7287619 44.2099259,20.7882857 44.2099259,19.6572063 C44.3043704,18.5298889 45.342,17.4916032 46.3846667,17.5894127 L48.4599259,17.6834603 L49.971037,15.3322698 C50.6296296,14.3917937 51.9531111,14.1071429 52.8975556,14.6751905 C53.842,15.3322698 54.1265926,16.6489365 53.5561481,17.5894127 L51.3826667,20.8810794 C51.0086667,21.723746 50.3437778,22.0083968 49.6851852,22.0083968 Z" id="Fill-2"></path>
                    <path d="M3.22103704,72.5094603 C2.08896296,72.5094603 1.14451852,71.5689841 1.14451852,70.4429206 C1.14451852,69.3156032 2.08896296,68.2773175 3.22103704,68.2773175 C34.0086667,67.7142857 47.2308889,48.2439206 47.3240741,48.0570794 C57.712963,35.1750635 48.0821481,21.2535079 47.8894815,21.0679206 C47.2308889,20.1274444 47.4172593,18.8095238 48.3617037,18.1536984 C49.3061481,17.496619 50.6296296,17.6834603 51.2882222,18.6239365 C51.3826667,18.8095238 62.9074074,35.3656667 50.6296296,50.5060794 C50.2505926,51.348746 36.3697778,71.9464286 3.22103704,72.5094603 L3.22103704,72.5094603 Z" id="Fill-3"></path>
                    <path d="M39.3894815,11.3785079 C38.5382222,11.3785079 37.6882222,10.8154762 37.4074074,9.96779365 C35.8975556,5.73565079 39.8617037,1.78815873 40.3339259,1.41071429 C40.9937778,0.754888889 42.0364444,0.655825397 42.8826667,1.12606349 C44.7715556,2.1605873 47.5104444,2.44398413 47.6048889,2.44398413 C48.7357037,2.53677778 49.586963,3.57130159 49.4937778,4.70238095 C49.3993333,5.82844444 48.3617037,6.67612698 47.2258519,6.58333333 C46.94,6.58333333 44.6771111,6.29868254 42.4104444,5.45726984 C41.7505926,6.39774603 41.1801481,7.62161905 41.466,8.46428571 C41.8437778,9.59034921 41.2783704,10.8154762 40.1425185,11.1929206 C39.8617037,11.3785079 39.6753333,11.3785079 39.3894815,11.3785079 Z" id="Fill-4"></path>
                </g>
            </g>
        </g>
    </g>
</svg>