<?xml version="1.0" encoding="UTF-8"?>
<svg width="94px" height="37px" viewBox="0 0 94 37" version="1.1" xmlns="http://www.w3.org/2000/svg" xmlns:xlink="http://www.w3.org/1999/xlink">
    <!-- Generator: Sketch 43.1 (39012) - http://www.bohemiancoding.com/sketch -->
    <title>Page 1</title>
    <desc>Created with Sketch.</desc>
    <defs></defs>
    <g id="Kyle" stroke="none" stroke-width="1" fill="none" fill-rule="evenodd">
        <g id="No-Events-Found" transform="translate(-364.000000, -349.000000)" fill="#696F8D">
            <g id="Message-in-a-Bottle" transform="translate(117.000000, 349.000000)">
                <path d="M337.759053,28.6186271 L332.530425,32.1418939 C331.63434,32.7447245 330.450003,33.0461399 329.270679,33.0461399 C328.090102,33.0461399 326.905765,32.7447245 326.009679,32.1418939 L320.781052,28.6186271 C319.884966,28.0157964 318.700629,27.7143811 317.521306,27.7143811 C316.340728,27.7143811 315.156392,28.0157964 314.260306,28.6186271 L309.031678,32.1418939 C308.704576,32.3635228 308.346142,32.5370266 307.960135,32.6763362 C311.484321,28.1487738 312.649859,22.6523763 310.373927,17.5080522 L316.345742,11.4721466 C317.110234,12.1952902 318.318383,12.1851586 319.062823,11.4278208 C319.81729,10.6704831 319.827316,9.4584895 319.106688,8.68215502 L319.111701,8.67708922 L319.067836,8.63276343 C319.067836,8.62769763 319.062823,8.62769763 319.062823,8.62769763 C319.062823,8.62769763 319.062823,8.62263182 319.05781,8.62263182 L311.112101,0.589532953 C311.108341,0.584467149 311.108341,0.584467149 311.103328,0.579401345 C310.338835,-0.193133782 309.095595,-0.193133782 308.337369,0.579401345 C307.567863,1.35067002 307.572876,2.60698944 308.337369,3.37952457 C308.337369,3.38459037 308.342382,3.38459037 308.342382,3.38838972 L302.374327,9.41922952 C300.592182,8.61376666 298.761159,8.23763071 296.955202,8.23763071 C292.852008,8.23763071 288.822756,10.181633 285.50912,13.5301296 L271.419898,27.767572 C271.12538,27.728312 270.827103,27.7093153 270.523812,27.7093153 C269.343235,27.7093153 268.158898,28.0107306 267.262813,28.6135613 L262.029172,32.1368281 C261.13434,32.7396587 259.953762,33.0423405 258.769426,33.0423405 C257.588849,33.0423405 256.404512,32.7396587 255.508426,32.1368281 L250.274785,28.6135613 C249.379953,28.0107306 248.199376,27.7093153 247.015039,27.7093153 L247,27.7093153 L247,31.6669747 C247.005013,31.6669747 247.010026,31.6619089 247.015039,31.6619089 C247.587782,31.6619089 247.978801,31.8202153 248.101621,31.9038011 L253.335262,35.4258014 C254.837929,36.4402286 256.766706,37 258.764413,37 C260.762119,37 262.690896,36.4452944 264.193563,35.4258014 L269.427204,31.9038011 C269.553784,31.8252811 269.93603,31.6619089 270.513786,31.6619089 C271.086529,31.6619089 271.477548,31.8202153 271.600368,31.9038011 L276.834009,35.4258014 C278.336675,36.4402286 280.265453,37 282.263159,37 C284.260866,37 286.189643,36.4452944 287.69231,35.4258014 L292.925951,31.9038011 C293.052531,31.8252811 293.434777,31.6619089 294.012533,31.6619089 C294.585275,31.6619089 294.976295,31.8202153 295.099115,31.9038011 L300.332756,35.4258014 C301.835422,36.4402286 303.764199,37 305.766919,37 C307.764626,37 309.693403,36.4452944 311.19607,35.4258014 L316.42971,31.9038011 C316.55629,31.8252811 316.938537,31.6619089 317.521306,31.6619089 C318.094048,31.6619089 318.480054,31.8202153 318.602875,31.9038011 L323.836515,35.4258014 C325.339182,36.4402286 327.267959,37 329.270679,37 C331.267132,37 333.197163,36.4452944 334.699829,35.4258014 L339.928457,31.9038011 C340.055037,31.8252811 340.43227,31.6669747 341,31.6669747 L341,27.7093153 C339.829449,27.7181804 338.655138,28.0208622 337.759053,28.6186271 Z M296.882998,28.5490168 C295.996017,27.9429905 294.823714,27.6399774 293.656372,27.6399774 C292.487791,27.6399774 291.315487,27.9429905 290.428506,28.5490168 L285.248041,32.0909605 C284.362301,32.6969868 283.193719,33 282.021416,33 C281.362693,33 280.702729,32.9057858 280.092387,32.7173575 L290.520306,22.0100439 L290.520306,22.0100439 C291.277031,21.2283208 291.277031,19.9704343 290.520306,19.1950771 C289.764821,18.4184467 288.534213,18.4184467 287.777488,19.1950771 L276.642465,30.6230018 L275,29.4987976 L277.892922,26.5259584 L287.957365,16.1955015 C290.568686,13.5154902 293.616675,12.0386193 296.549295,12.0386193 C297.838208,12.0386193 299.112236,12.3212618 300.33416,12.8840006 L302.765605,13.9980195 L304.656177,12.0628094 L310.563594,6 L313,8.50176828 L305.208214,16.4997878 L306.29368,18.9951903 C307.180661,21.0347998 307.355576,23.1737162 306.80726,25.3470081 C306.255223,27.559768 304.961348,29.7585231 303.067054,31.6975527 L302.45175,32.3290423 C302.310329,32.2551988 302.175111,32.1698967 302.048577,32.0858679 L296.882998,28.5490168 Z" id="Page-1"></path>
            </g>
        </g>
    </g>
</svg>