<?xml version="1.0" encoding="UTF-8"?>
<svg width="90px" height="70px" viewBox="0 0 90 70" version="1.1" xmlns="http://www.w3.org/2000/svg" xmlns:xlink="http://www.w3.org/1999/xlink">
    <!-- Generator: Sketch 43.1 (39012) - http://www.bohemiancoding.com/sketch -->
    <title>Page 1</title>
    <desc>Created with Sketch.</desc>
    <defs></defs>
    <g id="Kyle" stroke="none" stroke-width="1" fill="none" fill-rule="evenodd">
        <g id="No-Events-Found" transform="translate(-365.000000, -1262.000000)" fill="#696F8D">
            <g id="Ice-Cream" transform="translate(117.000000, 1262.000000)">
                <g id="Page-1" transform="translate(248.000000, 0.000000)">
                    <path d="M61.62625,45.7525 L61.90875,49.40875 C61.90875,49.8775 61.53375,50.34625 61.065,50.44 L60.78125,50.44 C60.3125,50.44 59.84375,50.06375 59.75125,49.595 L59.4675,45.9375 C59.4675,45.46875 59.84375,45 60.3125,44.9075 L60.59625,44.9075 C61.065,44.9075 61.53375,45.28375 61.62625,45.7525 Z" id="Fill-1"></path>
                    <path d="M63.2175,59.62375 L66.59125,60.9375 C67.06,61.1225 67.24625,61.69 67.06,62.15875 L66.9675,62.34375 C66.7825,62.8125 66.21625,62.9975 65.7475,62.8125 L62.3725,61.49875 C61.90375,61.31375 61.71875,60.7475 61.90375,60.27875 L61.9975,60.0925 C62.1875,59.62375 62.74875,59.43875 63.2175,59.62375 Z" id="Fill-2"></path>
                    <path d="M58.99875,54.09125 L59.2825,57.74875 C59.2825,58.2175 58.90625,58.68625 58.4375,58.77875 L58.15375,58.77875 C57.685,58.77875 57.21625,58.40375 57.12375,57.935 L56.84125,54.2775 C56.84125,53.80875 57.21625,53.34 57.685,53.2475 L57.96875,53.2475 C58.53,53.2525 58.99875,53.6225 58.99875,54.09125 Z" id="Fill-3"></path>
                    <path d="M55.81,45.7525 L56.09375,49.40875 C56.09375,49.8775 55.7175,50.34625 55.24875,50.44 L54.96625,50.44 C54.4975,50.44 54.02875,50.06375 53.935,49.595 L53.75,45.9375 C53.75,45.46875 54.12625,45 54.595,44.9075 L54.8775,44.9075 C55.34125,44.9075 55.81,45.28375 55.81,45.7525 Z" id="Fill-4"></path>
                    <path d="M39.5025,53.53 L40.06375,57.095 C40.15625,57.56375 39.78,58.0325 39.31125,58.125 L39.02875,58.125 C38.56,58.2175 38.09125,57.84125 37.9975,57.3725 L37.43625,53.80875 C37.34375,53.34 37.72,52.87125 38.18875,52.77875 L38.47125,52.77875 C38.935,52.685 39.40375,52.96875 39.5025,53.53 Z" id="Fill-5"></path>
                    <path d="M47.94,54.56 L46.90875,58.0275 C46.81625,58.49625 46.255,58.77875 45.78625,58.68125 L45.5025,58.58875 C45.03375,58.49625 44.75125,57.935 44.84875,57.46625 L45.87875,53.99875 C45.97125,53.53 46.53375,53.2475 47.0025,53.345 L47.285,53.4375 C47.84125,53.53 48.125,53.99875 47.94,54.56 Z" id="Fill-6"></path>
                    <path d="M53.8425,37.5 L57.03125,39.2825 C57.5,39.565 57.5925,40.1275 57.4075,40.5025 L57.315,40.68875 C57.03125,41.1575 56.47,41.25 56.09375,41.065 L52.8125,39.2825 C52.34375,38.99875 52.25125,38.4375 52.43625,38.06125 L52.52875,37.87625 C52.8125,37.4075 53.37375,37.21625 53.8425,37.5 Z" id="Fill-7"></path>
                    <path d="M50.9375,60.0925 L54.40375,61.31375 C54.8725,61.49875 55.15625,61.9675 54.96625,62.43625 L54.8725,62.6225 C54.6875,63.09125 54.21875,63.37375 53.75,63.18375 L50.28375,61.9625 C49.815,61.7775 49.53125,61.30875 49.72125,60.84 L49.815,60.65375 C49.9075,60.185 50.46875,60 50.9375,60.0925 Z" id="Fill-8"></path>
                    <path d="M46.90375,45.37625 L49.9025,47.34375 C50.37125,47.6275 50.46375,48.18875 50.185,48.6575 L50.0925,48.8425 C49.81,49.31125 49.2475,49.40375 48.77875,49.12625 L45.78125,47.15875 C45.3125,46.875 45.22,46.31375 45.4975,45.845 L45.59125,45.65875 C45.87375,45.185 46.435,45.0925 46.90375,45.37625 Z" id="Fill-9"></path>
                    <path d="M48.68625,30.0925 L49.0625,33.75 C49.0625,34.21875 48.68625,34.6875 48.2175,34.78 L47.935,34.78 C47.46625,34.78 46.9975,34.40375 46.90375,33.935 L46.62125,30.27875 C46.62125,29.81 46.9975,29.34125 47.46625,29.2475 L47.74875,29.2475 C48.2175,29.2475 48.68625,29.62375 48.68625,30.0925 Z" id="Fill-10"></path>
                    <path d="M43.72125,37.5925 L47.095,38.90625 C47.56375,39.09125 47.74875,39.65875 47.56375,40.1275 L47.47125,40.3125 C47.285,40.78125 46.71875,40.96625 46.25,40.78125 L42.87625,39.4675 C42.4075,39.2825 42.22125,38.71625 42.4075,38.2475 L42.5,38.06125 C42.685,37.5925 43.2525,37.4075 43.72125,37.5925 Z" id="Fill-11"></path>
                    <path d="M39.8725,43.31 L40.15625,46.9675 C40.15625,47.43625 39.78,47.905 39.31125,47.9975 L39.02875,47.9975 C38.56,47.9975 38.09125,47.6225 37.9975,47.15375 L37.8125,43.50125 C37.8125,43.0325 38.18875,42.56375 38.6575,42.47125 L38.94,42.47125 C39.40375,42.47125 39.78,42.84125 39.8725,43.31 Z" id="Fill-12"></path>
                    <path d="M40.34125,32.6275 L40.625,36.28375 C40.625,36.7525 40.24875,37.22125 39.78,37.315 L39.4975,37.315 C39.02875,37.315 38.56,36.93875 38.46625,36.47 L38.18375,32.8125 C38.18375,32.34375 38.56,31.875 39.02875,31.7825 L39.31125,31.7825 C39.8725,31.69 40.24875,32.06 40.34125,32.6275 Z" id="Fill-13"></path>
                    <path d="M26.655,41.53375 L27.21625,45.0975 C27.31,45.56625 26.93375,46.035 26.465,46.1275 L26.18125,46.1275 C25.7125,46.22125 25.24375,45.845 25.15125,45.37625 L24.59,41.81125 C24.4975,41.3425 24.8725,40.87375 25.34125,40.78125 L25.625,40.78125 C26.09375,40.68875 26.5625,40.96625 26.655,41.53375 Z" id="Fill-14"></path>
                    <path d="M33.59375,41.3425 L32.56375,44.81 C32.47125,45.27875 31.90875,45.56125 31.44,45.46375 L31.25,45.37625 C30.78125,45.28375 30.4975,44.72125 30.59625,44.2525 L31.62625,40.78625 C31.71875,40.3175 32.28,40.03375 32.74875,40.13125 L33.0325,40.225 C33.40875,40.3125 33.68625,40.87375 33.59375,41.3425 Z" id="Fill-15"></path>
                    <path d="M41.00125,25.4975 L44.19,27.28 C44.65875,27.56375 44.75125,28.125 44.565,28.50125 L44.375,28.68625 C44.09125,29.155 43.53,29.2475 43.15375,29.0625 L39.96625,27.28 C39.4975,26.9975 39.40375,26.435 39.59,26.06 L39.6825,25.87375 C39.97125,25.405 40.5325,25.22 41.00125,25.4975 Z" id="Fill-16"></path>
                    <path d="M29.84375,48.09625 L33.31,49.31625 C33.77875,49.5025 34.0625,49.97125 33.8725,50.44 L33.77875,50.625 C33.59375,51.09375 33.125,51.3775 32.65625,51.18625 L29.19,49.96625 C28.72125,49.78 28.4375,49.31125 28.6275,48.8425 L28.72125,48.6575 C28.81375,48.18875 29.375,47.9975 29.84375,48.09625 Z" id="Fill-17"></path>
                    <path d="M32.28,33.75 L35.27875,35.7175 C35.7475,36.00125 35.84,36.5625 35.56125,37.03125 L35.46875,37.21625 C35.185,37.685 34.62375,37.77875 34.155,37.5 L31.1575,35.5325 C30.68875,35.24875 30.59625,34.6875 30.87375,34.21875 L30.96625,34.03375 C31.3425,33.6575 31.90375,33.46625 32.28,33.75 Z" id="Fill-18"></path>
                    <path d="M83.6575,57.1875 C84.40875,56.065 84.78,54.75125 84.78,53.345 C84.78,51.84625 84.31125,50.34625 83.46625,49.21875 L89.185,43.50125 L87.5925,41.90875 L81.875,47.6275 C80.7525,46.875 79.34625,46.40625 77.84125,46.40625 C74.185,46.40625 71.09375,49.31125 70.90375,52.87625 C69.40375,52.69 67.905,52.5 66.40125,52.4075 C68.27625,46.69 67.24625,41.065 63.58875,37.4075 C61.9,35.7175 59.83875,34.595 57.495,34.03375 C57.02625,30.37625 55.435,27.1875 52.99375,24.65875 C51.68,23.345 50.18125,22.315 48.58875,21.5625 C49.0575,18.46625 48.12,16.69 47.1825,15.7525 C45.215,13.78375 41.84125,13.78375 37.43125,15.56625 L34.0625,12.28 C32.94,11.1575 31.1575,10.96625 29.84375,11.81125 L28.72125,10.68875 C27.87625,9.84375 26.66,9.565 25.5325,9.75125 L17.3775,1.59625 C16.065,0.28375 13.81375,0.28375 12.505,1.59625 L1.065,12.94 C-0.24875,14.2525 -0.24875,16.50375 1.065,17.8125 L9.21875,25.96625 C8.935,27.09 9.21875,28.31 10.15625,29.155 L11.27875,30.27875 C10.435,31.59125 10.625,33.37375 11.7475,34.4975 L15.02875,37.77875 C13.2475,42.09 13.2475,45.56125 15.215,47.52875 C16.1525,48.46625 17.84125,49.40375 21.025,48.935 C21.7775,50.625 22.8075,52.12375 24.12125,53.34 C26.65,55.86875 29.83875,57.3725 33.49625,57.84125 C33.965,59.9025 34.81,61.685 36.1225,63.18375 C36.40625,63.56 36.7775,64.02875 37.24625,64.40375 C39.12125,66.09375 41.465,67.12375 44.09125,67.5925 C48.59375,68.90625 54.40375,69.56 60.4975,69.56 C72.685,69.56 85.7175,66.5625 85.7175,60.84 C85.7175,59.43875 84.97125,58.2175 83.6575,57.1875 Z M60.4975,67.21625 C54.59,67.21625 48.965,66.5625 44.65375,65.34125 L44.4675,65.34125 C42.21625,65.05875 40.24875,64.12125 38.75,62.715 L38.6575,62.715 C38.28125,62.43125 38.09625,62.15375 37.8125,61.87 L37.72,61.7775 C36.49875,60.37125 35.7525,58.58875 35.37625,56.62125 L35.19,55.77625 L34.2525,55.68375 C30.78625,55.4 27.78375,53.99375 25.44,51.7475 C24.12625,50.435 23.18875,48.935 22.44125,47.15375 L22.065,46.21625 L21.1275,46.40125 C19.62875,46.7775 17.66125,46.9625 16.53375,45.84 C15.41,44.71625 15.41,42.46625 16.53375,39.4625 C16.62625,39.0875 16.81625,38.71125 17.0025,38.34 C18.69125,34.4975 21.69,30.185 25.625,26.245 C29.56,22.31 33.8775,19.21375 37.72,17.6225 C38.09625,17.43625 38.47125,17.33875 38.8425,17.15375 C41.84125,16.1225 44.09125,16.1225 45.22,17.15375 C46.3425,18.27625 46.1575,20.24875 45.78125,21.7475 L45.59625,22.685 L46.53375,23.06125 C48.2225,23.71625 49.815,24.75125 51.1275,26.06 C53.47125,28.40375 54.785,31.40125 55.06375,34.8725 L55.15625,35.81 L56.00125,35.99625 C58.2525,36.3725 60.22,37.4025 61.71875,38.90125 C65,42.1825 65.65375,47.525 63.50125,52.87125 L62.94,54.37 L64.53125,54.4625 C66.875,54.55625 69.03375,54.83875 71.00125,55.1175 C71.84625,58.0225 74.565,60.18125 77.74875,60.18125 C79.34125,60.18125 80.845,59.61875 82.06,58.68125 C82.905,59.33625 83.37375,59.995 83.37375,60.65 C83.46625,63.46625 74.75125,67.21625 60.4975,67.21625 Z" id="Fill-19"></path>
                </g>
            </g>
        </g>
    </g>
</svg>