<?xml version="1.0" encoding="UTF-8"?>
<svg width="94px" height="90px" viewBox="0 0 94 90" version="1.1" xmlns="http://www.w3.org/2000/svg" xmlns:xlink="http://www.w3.org/1999/xlink">
    <!-- Generator: Sketch 43.1 (39012) - http://www.bohemiancoding.com/sketch -->
    <title>Planet</title>
    <desc>Created with Sketch.</desc>
    <defs></defs>
    <g id="Kyle" stroke="none" stroke-width="1" fill="none" fill-rule="evenodd">
        <g id="No-Events-Found" transform="translate(-364.000000, -772.000000)" fill-rule="nonzero" fill="#696F8D">
            <g id="Space-2" transform="translate(117.000000, 772.000000)">
                <g id="Planet" transform="translate(247.000000, 0.000000)">
                    <g id="Group">
                        <path d="M91.52625,32.085 C91.52625,27.94625 88.16,24.5825 84.02375,24.5825 C79.885,24.5825 76.51875,27.94625 76.51875,32.085 C76.51875,36.22375 79.885,39.59 84.02375,39.59 C88.15875,39.59 91.52625,36.22375 91.52625,32.085 Z M80.45375,32.085 C80.45375,30.1175 82.055,28.5175 84.0225,28.5175 C85.9875,28.5175 87.59,30.11625 87.59,32.085 C87.59,34.05375 85.98875,35.65375 84.0225,35.65375 C82.055,35.65375 80.45375,34.0525 80.45375,32.085 Z" id="Shape"></path>
                        <path d="M41.72625,13.89375 C25.1225,13.89375 11.61375,27.4025 11.61375,44.00625 C11.61375,47.25875 12.15875,50.435 13.1725,53.48625 C8.38625,55.13375 4.93375,59.67 4.93375,65.0075 C4.93375,71.73125 10.40375,77.2 17.12875,77.2 C21.7775,77.2 25.8225,74.5825 27.87875,70.745 C32.14125,72.955 36.8825,74.11875 41.72625,74.11875 C58.33,74.11875 71.83875,60.61 71.83875,44.00625 C71.83875,27.4025 58.33,13.89375 41.72625,13.89375 Z M61.48375,26.61125 C64.4525,29.98 66.59625,34.09375 67.54,38.6525 C64.2675,36.64625 61.98625,33.2425 61.5125,29.34125 C61.40125,28.4275 61.39875,27.515 61.48375,26.61125 Z M28.2325,21.40125 C28.30375,21.9625 28.37125,22.52125 28.4925,23.125 C28.775,24.6775 29.31,26.1275 29.82875,27.53125 C30.89125,30.4075 31.80875,32.8925 30.46875,35.6975 C28.815,39.16875 26.40625,39.38125 22.23,38.54625 L21.60625,38.43625 C20.1825,38.19 18.1975,37.8425 16.26,37.30625 C18.0325,30.57375 22.3975,24.8975 28.2325,21.40125 Z M15.73875,39.76125 C17.74375,40.30625 19.7375,40.6525 21.18125,40.90125 L21.76875,41.00375 C23.01625,41.2525 24.31,41.4625 25.58125,41.4625 C28.33125,41.4625 30.96375,40.47625 32.72625,36.775 C34.52375,33.0175 33.32875,29.7875 32.175,26.665 C31.6725,25.3025 31.1975,24.01625 30.95,22.65625 C30.77125,21.76 30.67375,20.93 30.615,20.13375 C33.2525,18.90125 36.1125,18.07125 39.135,17.775 C38.48,20.9175 39.05,24.4375 40.86375,28.6 C43.935,35.83875 46.29375,42.81125 41.4625,48.57125 C37.365,53.59375 31.17125,52.12375 24.61125,50.56875 C21.9425,49.93375 19.18375,49.28 16.6575,49.1525 C16.39375,49.14 16.135,49.1425 15.87625,49.14 C15.54375,47.4575 15.36625,45.74375 15.36625,44.00625 C15.36375,42.55625 15.5125,41.145 15.73875,39.76125 Z M17.12875,73.26375 C12.57375,73.26375 8.87,69.56 8.87,65.0075 C8.87,60.455 12.575,56.75125 17.12875,56.75125 C21.68,56.75125 25.38375,60.455 25.38375,65.0075 C25.38375,69.56 21.68,73.26375 17.12875,73.26375 Z M41.72625,70.36875 C37.2975,70.36875 32.97125,69.2525 29.11875,67.15125 C29.2425,66.4525 29.31875,65.74 29.31875,65.0075 C29.31875,63.59625 29.065,62.24625 28.62125,60.98375 C29.895,61.1425 31.17125,61.40875 32.47,61.80375 C35.03125,62.61125 37.17,63.80625 39.4325,65.0675 C40.53625,65.6825 41.67875,66.32 42.89875,66.93 C44.8575,67.93875 46.92375,68.7175 49.06375,69.305 C46.7325,69.985 44.275,70.36875 41.72625,70.36875 Z M53.315,67.64875 C50.03625,67.15125 46.915,66.18375 44.03,64.7025 C42.8475,64.10875 41.73,63.48625 40.65125,62.88625 C38.27375,61.5575 36.0275,60.30625 33.21125,59.4175 C31.2175,58.81 29.28125,58.4625 27.32875,58.3525 C25.14875,55.025 21.39375,52.815 17.12875,52.815 C17.0525,52.815 16.98,52.825 16.90375,52.8275 C16.765,52.43625 16.625,52.04625 16.505,51.65125 C16.51625,51.65375 16.52625,51.65125 16.535,51.65125 C18.8275,51.76625 21.355,52.36625 24.0325,53.00125 C27.14875,53.74125 30.45875,54.525 33.6175,54.525 C37.245,54.525 40.675,53.4925 43.38625,50.1675 C49.11,43.34125 46.41375,35.29 43.15625,27.61375 C41.405,23.595 40.96125,20.43625 41.75625,17.645 C45.84375,17.65 49.7,18.61625 53.155,20.28875 C51.99,22.9425 51.3725,25.83125 51.3725,28.75125 C51.3725,38.52875 58.20875,47.02 67.56125,49.24 C65.92375,57.34625 60.54125,64.09125 53.315,67.64875 Z M53.87375,28.75 C53.87375,26.245 54.38875,23.7725 55.36,21.48625 C56.77,22.34375 58.0925,23.325 59.3125,24.42375 C58.92125,26.1325 58.8175,27.88625 59.02875,29.64125 C59.67625,34.97375 63.125,39.56125 67.97125,41.72125 C68.03625,42.47625 68.08625,43.235 68.08625,44.00625 C68.08625,44.93125 68.03625,45.8475 67.9425,46.75 C59.805,44.72125 53.87375,37.2975 53.87375,28.75 Z" id="Shape"></path>
                        <path d="M50.5225,53.5275 C50.5225,56.18625 52.68625,58.35125 55.34625,58.35125 C58.0075,58.35125 60.17,56.18625 60.17,53.5275 C60.17,50.86625 58.0075,48.70375 55.34625,48.70375 C52.68625,48.70375 50.5225,50.86625 50.5225,53.5275 Z M57.67125,53.5275 C57.67125,54.80875 56.62875,55.85125 55.3475,55.85125 C54.06625,55.85125 53.02375,54.80875 53.02375,53.5275 C53.02375,52.24625 54.06625,51.20375 55.3475,51.20375 C56.62875,51.20375 57.67125,52.24625 57.67125,53.5275 Z" id="Shape"></path>
                        <ellipse id="Oval" cx="74.84125" cy="16.00875" rx="1.6775" ry="1.6775"></ellipse>
                        <ellipse id="Oval" cx="4.93375" cy="52.0975" rx="1.6775" ry="1.6775"></ellipse>
                        <circle id="Oval" cx="73.16125" cy="82.3875" r="1.6775"></circle>
                        <circle id="Oval" cx="11.29375" cy="6.1375" r="1.6775"></circle>
                        <circle id="Oval" cx="91.52625" cy="60.03125" r="1.6775"></circle>
                        <ellipse id="Oval" cx="23.29125" cy="3.7625" rx="1" ry="1"></ellipse>
                        <ellipse id="Oval" cx="2.2925" cy="39.59" rx="1" ry="1"></ellipse>
                        <ellipse id="Oval" cx="1.595" cy="20.5125" rx="1" ry="1"></ellipse>
                        <ellipse id="Oval" cx="44.04875" cy="6.1375" rx="1" ry="1"></ellipse>
                        <ellipse id="Oval" cx="68.87125" cy="0.9575" rx="1" ry="1"></ellipse>
                        <ellipse id="Oval" cx="91.525" cy="16.91125" rx="1" ry="1"></ellipse>
                        <ellipse id="Oval" cx="74.84" cy="64.40625" rx="1" ry="1"></ellipse>
                        <circle id="Oval" cx="88.6825" cy="76.50375" r="1"></circle>
                        <ellipse id="Oval" cx="84.0225" cy="52.0975" rx="1" ry="1"></ellipse>
                        <ellipse id="Oval" cx="51.22" cy="81.40625" rx="1" ry="1"></ellipse>
                        <ellipse id="Oval" cx="12.97125" cy="88.95" rx="1" ry="1"></ellipse>
                        <ellipse id="Oval" cx="30.98625" cy="80.71" rx="1" ry="1"></ellipse>
                        <ellipse id="Oval" cx="0.8975" cy="80.0125" rx="1" ry="1"></ellipse>
                    </g>
                </g>
            </g>
        </g>
    </g>
</svg>