<?xml version="1.0" encoding="UTF-8"?>
<svg width="75px" height="75px" viewBox="0 0 75 75" version="1.1" xmlns="http://www.w3.org/2000/svg" xmlns:xlink="http://www.w3.org/1999/xlink">
    <!-- Generator: Sketch 43.1 (39012) - http://www.bohemiancoding.com/sketch -->
    <title>Space Icon</title>
    <desc>Created with Sketch.</desc>
    <defs></defs>
    <g id="Kyle" stroke="none" stroke-width="1" fill="none" fill-rule="evenodd">
        <g id="No-Events-Found" transform="translate(-373.000000, -541.000000)" fill="#696F8D">
            <g id="Space-1" transform="translate(117.000000, 541.000000)">
                <g id="Space-Icon" transform="translate(256.000000, 0.000000)">
                    <path d="M18.75,22.5 C19.441,22.5 20,21.941 20,21.25 C20,20.559 19.441,20 18.75,20 C18.059,20 17.5,20.559 17.5,21.25 C17.5,21.941 18.059,22.5 18.75,22.5" id="Fill-1"></path>
                    <path d="M47.5,71.25 C46.809,71.25 46.25,71.809 46.25,72.5 C46.25,73.191 46.809,73.75 47.5,73.75 C48.191,73.75 48.75,73.191 48.75,72.5 C48.75,71.809 48.191,71.25 47.5,71.25" id="Fill-2"></path>
                    <path d="M72.5,61.25 C71.809,61.25 71.25,61.809 71.25,62.5 C71.25,63.191 71.809,63.75 72.5,63.75 C73.191,63.75 73.75,63.191 73.75,62.5 C73.75,61.809 73.191,61.25 72.5,61.25" id="Fill-3"></path>
                    <path d="M63.75,28.75 C64.441,28.75 65,28.191 65,27.5 C65,26.809 64.441,26.25 63.75,26.25 C63.059,26.25 62.5,26.809 62.5,27.5 C62.5,28.191 63.059,28.75 63.75,28.75" id="Fill-4"></path>
                    <path d="M70,5 C70.691,5 71.25,4.441 71.25,3.75 C71.25,3.059 70.691,2.5 70,2.5 C69.309,2.5 68.75,3.059 68.75,3.75 C68.75,4.441 69.309,5 70,5" id="Fill-5"></path>
                    <path d="M17.504,34.926 C18.23,34.574 18.93,34.074 19.672,33.539 C21.164,32.469 22.852,31.258 24.996,31.258 C25.008,31.258 25.023,31.262 25.031,31.258 C25.422,31.258 26.656,30.73 27.395,30.414 C29.172,29.648 30.344,29.145 31.258,29.746 C32.457,30.535 33.016,31.969 32.793,33.676 C32.555,35.5 31.363,37.754 29.625,38.34 C28.676,38.66 27.711,38.418 26.984,37.68 C26.746,37.441 26.582,37.367 26.539,37.359 C26.555,37.414 26.473,37.738 26.523,37.859 C27.289,38.672 27.598,39.98 27.293,41.234 C27.012,42.395 26.242,43.305 25.23,43.664 C24.184,44.039 22.844,43.43 21.293,42.723 C21.078,42.625 20.824,42.512 20.574,42.402 C20.82,43.73 20.398,44.918 19.949,45.812 C20.094,45.781 20.254,45.742 20.43,45.703 C23.363,44.996 24.016,46.793 24.324,47.66 C24.477,48.07 24.578,48.332 24.766,48.477 C25.746,49.227 25.742,49.227 27.746,48.297 L27.961,48.199 C28.949,47.746 30.082,47.355 31.02,47.855 C31.91,48.324 32.066,49.246 32.18,49.922 C32.242,50.309 32.305,50.676 32.465,50.918 C33.426,52.375 35.387,53.875 37,53.875 L37.016,53.875 C37.793,53.871 38.418,53.504 38.926,52.75 C38.973,52.57 39.031,52.137 39.074,51.809 C39.297,50.172 39.57,48.133 41.172,47.613 C42.426,47.211 43.609,48.117 44.273,48.75 L47.367,48.75 C46.113,36.824 36,27.5 23.75,27.5 C21.906,27.5 20.117,27.73 18.391,28.133 L17.434,30.434 C17.184,31.582 16.656,32.477 16.133,33.293 C15.797,33.812 15.98,34.336 16.262,34.656 C16.387,34.797 16.855,35.246 17.504,34.926" id="Fill-6"></path>
                    <path d="M43.211,51.25 L42.844,50.859 C42.426,50.422 42.141,50.207 41.969,50.105 C41.762,50.582 41.621,51.648 41.555,52.141 C41.438,53.016 41.359,53.59 41.074,54.035 C39.836,55.957 38.191,56.367 37.027,56.375 L37,56.375 C34.305,56.375 31.68,54.266 30.379,52.297 C29.93,51.613 29.805,50.875 29.715,50.336 C29.707,50.293 29.699,50.246 29.691,50.199 C29.531,50.25 29.305,50.332 29.004,50.473 L28.797,50.566 C26.066,51.832 25.34,52.07 23.242,50.457 C22.465,49.859 22.184,49.078 21.977,48.512 C21.918,48.348 21.828,48.102 21.773,48.02 C21.758,48.035 21.539,48.008 21.012,48.133 C18.953,48.625 17.652,48.855 16.961,47.914 C16.328,47.055 16.863,46.152 17.297,45.43 C17.922,44.379 18.406,43.43 17.992,42.441 C17.82,42.035 17.293,40.789 18.168,39.938 C19.133,38.996 20.543,39.637 22.328,40.449 C22.977,40.746 24.047,41.23 24.461,41.277 C24.645,41.176 24.793,40.945 24.867,40.645 C24.969,40.223 24.883,39.758 24.66,39.52 C23.609,38.395 23.926,36.488 24.91,35.539 C25.727,34.754 27.223,34.379 28.762,35.918 C29.086,35.949 29.91,35.094 30.23,33.789 C30.305,33.484 30.492,32.551 30.094,32.031 C29.668,32.156 28.914,32.48 28.383,32.707 C27.117,33.25 25.934,33.742 25.012,33.758 L24.996,33.758 C23.656,33.758 22.43,34.641 21.133,35.57 C20.336,36.141 19.512,36.734 18.594,37.176 C17.133,37.887 15.48,37.547 14.391,36.316 C13.289,35.074 13.145,33.316 14.027,31.941 C14.457,31.27 14.855,30.605 15.008,29.824 L15.078,29.582 L15.285,29.086 C6.363,32.508 0,41.141 0,51.25 C0,55.047 0.918,58.625 2.508,61.812 L4.164,60.32 L6.617,57.867 C6.711,57.77 6.82,57.691 6.941,57.633 L9.441,56.383 C9.523,56.34 9.609,56.309 9.695,56.289 L14.695,55.039 C15.023,54.953 15.375,55.012 15.664,55.191 L17.551,56.379 L20.25,57.5 L23.75,57.5 C23.883,57.5 24.02,57.52 24.145,57.562 L27.895,58.812 C28.406,58.984 28.75,59.461 28.75,60 L28.75,62.5 L33.75,62.5 C34.152,62.5 34.527,62.691 34.766,63.02 C35,63.344 35.062,63.766 34.934,64.145 L33.684,67.895 C33.625,68.078 33.523,68.246 33.383,68.383 L31.25,70.516 L31.25,73.766 C40.68,70.617 47.5,61.723 47.5,51.25 L43.211,51.25 Z" id="Fill-7"></path>
                    <path d="M32.016,65 L27.5,65 C26.809,65 26.25,64.441 26.25,63.75 L26.25,60.902 L23.547,60 L20,60 C19.836,60 19.672,59.969 19.52,59.902 L16.496,58.645 C16.43,58.617 16.367,58.586 16.309,58.551 L14.785,57.594 L10.438,58.68 L8.238,59.777 L5.883,62.133 L3.77,64.039 C7.996,70.617 15.363,75 23.75,75 C25.465,75 27.137,74.809 28.75,74.461 L28.75,70 C28.75,69.668 28.883,69.352 29.117,69.117 L31.406,66.824 L32.016,65 Z" id="Fill-8"></path>
                    <path d="M47.5,16.25 L57.262,16.25 C57.41,15.438 57.5,14.605 57.5,13.75 C57.5,13.328 57.473,12.914 57.438,12.5 L51.25,12.5 C50.559,12.5 50,11.941 50,11.25 C50,10.559 50.559,10 51.25,10 L56.969,10 C55.328,4.238 50.031,0 43.75,0 C38.934,0 34.699,2.492 32.238,6.25 L46.25,6.25 C46.941,6.25 47.5,6.809 47.5,7.5 C47.5,8.191 46.941,8.75 46.25,8.75 L30.953,8.75 C30.492,9.93 30.184,11.188 30.062,12.5 L38.75,12.5 C39.441,12.5 40,13.059 40,13.75 C40,14.441 39.441,15 38.75,15 L30.062,15 C30.227,16.789 30.734,18.473 31.516,20 L43.75,20 C44.441,20 45,20.559 45,21.25 C45,21.941 44.441,22.5 43.75,22.5 L33.152,22.5 C35.676,25.551 39.488,27.5 43.75,27.5 C49.566,27.5 54.539,23.863 56.547,18.75 L47.5,18.75 C46.809,18.75 46.25,18.191 46.25,17.5 C46.25,16.809 46.809,16.25 47.5,16.25" id="Fill-9"></path>
                    <path d="M68.75,46.25 L74.898,46.25 C74.957,45.84 75,45.426 75,45 C75,40.176 71.074,36.25 66.25,36.25 C62.77,36.25 59.766,38.297 58.355,41.25 L63.75,41.25 C64.441,41.25 65,41.809 65,42.5 C65,43.191 64.441,43.75 63.75,43.75 L57.602,43.75 C57.543,44.16 57.5,44.574 57.5,45 C57.5,49.824 61.426,53.75 66.25,53.75 C69.73,53.75 72.734,51.703 74.145,48.75 L68.75,48.75 C68.059,48.75 67.5,48.191 67.5,47.5 C67.5,46.809 68.059,46.25 68.75,46.25" id="Fill-10"></path>
                    <path d="M7.5,5.52 L9.484,7.5 L7.5,9.484 L5.516,7.5 L7.5,5.52 Z M1.25,8.75 L3.234,8.75 L6.25,11.77 L6.25,13.75 C6.25,14.441 6.809,15 7.5,15 C8.191,15 8.75,14.441 8.75,13.75 L8.75,11.77 L11.766,8.75 L13.75,8.75 C14.441,8.75 15,8.191 15,7.5 C15,6.809 14.441,6.25 13.75,6.25 L11.766,6.25 L8.75,3.234 L8.75,1.25 C8.75,0.559 8.191,0 7.5,0 C6.809,0 6.25,0.559 6.25,1.25 L6.25,3.234 L3.234,6.25 L1.25,6.25 C0.559,6.25 0,6.809 0,7.5 C0,8.191 0.559,8.75 1.25,8.75 Z" id="Fill-11"></path>
                </g>
            </g>
        </g>
    </g>
</svg>