<?xml version="1.0" encoding="UTF-8"?>
<svg width="73px" height="94px" viewBox="0 0 73 94" version="1.1" xmlns="http://www.w3.org/2000/svg" xmlns:xlink="http://www.w3.org/1999/xlink">
    <!-- Generator: Sketch 43.1 (39012) - http://www.bohemiancoding.com/sketch -->
    <title>Page 1</title>
    <desc>Created with Sketch.</desc>
    <defs></defs>
    <g id="Kyle" stroke="none" stroke-width="1" fill="none" fill-rule="evenodd">
        <g id="No-Events-Found" transform="translate(-372.000000, -1015.000000)" stroke="#696F8D" stroke-width="3.28947375">
            <g id="Ice-Cream-Bar" transform="translate(117.000000, 1015.000000)">
                <g id="Page-1" transform="translate(256.000000, 2.000000)">
                    <path d="M66.4597368,32.5266438 C66.3090175,32.7547671 66.1483333,32.9691781 65.9839123,33.1985479 L50.4274386,53.294589 L50.4274386,73.2048904 C50.4274386,75.9224247 48.2289298,78.1238767 45.5134912,78.1238767 L43.8742632,78.1238767 C42.064386,78.1238767 40.5945614,79.593589 40.5945614,81.404863 L40.5945614,86.3288356 C40.5945614,88.1401096 39.1297193,89.6060822 37.3198421,89.6060822 L34.0401404,89.6060822 C32.2302632,89.6060822 30.7604386,88.1401096 30.7604386,86.3288356 L30.7604386,72.4020959 C30.7604386,70.376411 29.8262281,68.4579315 28.2206316,67.2163425 L5.57163158,49.6520959 C4.13045614,48.536411 3.86763158,46.4870411 4.98245614,45.0410137 L33.583,8.08628767 C33.7436842,7.87187671 33.9230526,7.64375342 34.1086491,7.463 C41.1202105,-0.931438356 53.6099825,-2.32884932 62.3292807,4.42883562 C71.0485789,11.1877671 72.8198421,23.619863 66.4597368,32.5266438 Z" id="Stroke-1" stroke-linejoin="round"></path>
                    <path d="M23.413807,61.4110411 L9.36701754,79.5649178 C8.25717544,80.9959863 6.19942105,81.2590137 4.76821053,80.1495616 L2.17484211,78.1425753 C0.744877193,77.0331233 0.482052632,74.9725342 1.59064912,73.5414658 L15.6386842,55.3826027" id="Stroke-2"></path>
                    <path d="M37.3198421,21.535589 C37.3198421,21.9880959 36.9498947,22.3583288 36.4977368,22.3583288 C36.0455789,22.3583288 35.680614,21.9880959 35.680614,21.535589 C35.680614,21.0830822 36.0455789,20.7178356 36.4977368,20.7178356 C36.9498947,20.7178356 37.3198421,21.0830822 37.3198421,21.535589 Z" id="Stroke-3"></path>
                    <path d="M52.0679123,21.535589 C52.0679123,21.9880959 51.7029474,22.3583288 51.2507895,22.3583288 C50.797386,22.3583288 50.4274386,21.9880959 50.4274386,21.535589 C50.4274386,21.0830822 50.797386,20.7178356 51.2507895,20.7178356 C51.7029474,20.7178356 52.0679123,21.0830822 52.0679123,21.535589 Z" id="Stroke-4"></path>
                    <path d="M40.5945614,30.5583014 C40.5945614,28.7470274 42.064386,27.2773151 43.8742632,27.2773151" id="Stroke-5" stroke-linecap="round"></path>
                    <path d="M47.1527193,30.5583014 C47.1527193,28.7470274 45.6841404,27.2773151 43.8742632,27.2773151" id="Stroke-6" stroke-linecap="round"></path>
                </g>
            </g>
        </g>
    </g>
</svg>