<svg id="Layer_1" data-name="Layer 1" xmlns="http://www.w3.org/2000/svg" xmlns:xlink="http://www.w3.org/1999/xlink" width="10.69in" height="6.12in" viewBox="0 0 769.9 440.33">
  <defs>
    <style>
      .cls-1, .cls-3 {
        fill: none;
      }

      .cls-2 {
        opacity: 0.16;
      }

      .cls-3 {
        stroke: #50e3c2;
        stroke-width: 6px;
      }

      .cls-4 {
        fill: url(#New_Hexagon_Pattern);
      }
    </style>
    <pattern id="New_Hexagon_Pattern" data-name="New Hexagon Pattern" width="257" height="440.89" patternTransform="matrix(1, 0, 0, -1, -260, 994)" patternUnits="userSpaceOnUse" viewBox="0 0 257 440.89">
      <rect class="cls-1" width="257" height="440.89"/>
      <rect class="cls-1" width="257" height="440.89"/>
      <g id="Page-1" class="cls-2">
        <g id="How-it-Works">
          <g id="Background-Green-Hex">
            <g id="Group-4">
              <g id="Group">
                <g id="Polygon-3">
                  <polygon id="path-1" class="cls-3" points="140.5 66.5 140.5 -66.5 257 -133 373.5 -66.5 373.5 66.5 257 133 140.5 66.5"/>
                </g>
              </g>
            </g>
          </g>
        </g>
      </g>
      <g id="Page-1-2" class="cls-2">
        <g id="How-it-Works-2">
          <g id="Background-Green-Hex-2">
            <g id="Group-4-2">
              <g id="Group-2">
                <g id="Polygon-3-2">
                  <polygon id="path-1-2" class="cls-3" points="-116.5 66.5 -116.5 -66.5 0 -133 116.5 -66.5 116.5 66.5 0 133 -116.5 66.5"/>
                </g>
              </g>
            </g>
          </g>
        </g>
      </g>
      <g id="Page-1-3" class="cls-2">
        <g id="How-it-Works-3">
          <g id="Background-Green-Hex-3">
            <g id="Group-4-3">
              <g id="Group-3">
                <g id="Polygon-3-3">
                  <polygon id="path-1-3" class="cls-3" points="12 286.95 12 153.95 128.5 87.45 245 153.95 245 286.95 128.5 353.45 12 286.95"/>
                </g>
              </g>
            </g>
          </g>
        </g>
      </g>
      <g id="Page-1-4" class="cls-2">
        <g id="How-it-Works-4">
          <g id="Background-Green-Hex-4">
            <g id="Group-4-4">
              <g id="Group-4-5">
                <g id="Polygon-3-4">
                  <polygon id="path-1-4" class="cls-3" points="140.5 507.39 140.5 374.39 257 307.89 373.5 374.39 373.5 507.39 257 573.89 140.5 507.39"/>
                </g>
              </g>
            </g>
          </g>
        </g>
      </g>
      <g id="Page-1-5" class="cls-2">
        <g id="How-it-Works-5">
          <g id="Background-Green-Hex-5">
            <g id="Group-4-6">
              <g id="Group-5">
                <g id="Polygon-3-5">
                  <polygon id="path-1-5" class="cls-3" points="-116.5 507.39 -116.5 374.39 0 307.89 116.5 374.39 116.5 507.39 0 573.89 -116.5 507.39"/>
                </g>
              </g>
            </g>
          </g>
        </g>
      </g>
    </pattern>
  </defs>
  <title>hexagon-05</title>
  <rect class="cls-4" x="-257.67" y="-208.67" width="1080" height="1080"/>
</svg>
