<?xml version="1.0" encoding="utf-8"?>
<!-- Generator: Adobe Illustrator 21.0.2, SVG Export Plug-In . SVG Version: 6.00 Build 0)  -->
<svg version="1.1" id="Layer_1" xmlns="http://www.w3.org/2000/svg" xmlns:xlink="http://www.w3.org/1999/xlink" x="0px" y="0px"
	 viewBox="0 0 646 337" style="enable-background:new 0 0 646 337;" xml:space="preserve">
<style type="text/css">
	.st0{fill:#4A4A4A;}
	.st1{fill:#4CEFCE;}
	.st2{fill:#FFFFFF;}
</style>
<title>green-text-right</title>
<path class="st0" d="M358.5,143.8v28H341V99.9h28.4c8.3,0,14.8,2.2,19.5,6.5c4.5,3.9,7,9.6,7,15.6c0,4.4-1.4,8.6-3.8,12.2
	c-2.5,4-6.7,6.8-12.4,8.4l17.6,29.3h-20.5l-16.2-28L358.5,143.8z M358.5,113.2v17.3h10.9c4.4,0.3,8.3-3,8.6-7.4c0-0.4,0-0.8,0-1.2
	c0.1-2.3-0.8-4.6-2.4-6.3c-1.6-1.7-3.9-2.6-6.3-2.5L358.5,113.2z M454.9,171.9l-4-12.1h-25.8l-4,12.1h-18.6l25-72.1h21.3l24.9,72.1
	H454.9z M429.5,146.4h17l-8.5-25.7L429.5,146.4z M482.1,99.9h17.5v58.6h21.8v13.3H482L482.1,99.9L482.1,99.9z M530.9,99.9h17.5v58.6
	h21.8v13.3h-39.4V99.9H530.9z M616.1,171.9h-17.5v-23.2l-24.9-48.8h19.9l13.8,32.5l13.7-32.5H641l-24.9,48.8V171.9z"/>
<path class="st0" d="M353.2,202.2c-1.2,1-1.9,2.5-1.9,4.1c-0.1,1.4,0.4,3,1.3,4.1c0.9,1,2.2,1.9,3.5,2.3c1.6,0.5,3.2,1,4.9,1.4
	c1.8,0.4,3.5,0.9,5.3,1.6c1.7,0.5,3.3,1.3,4.9,2.2c1.6,0.9,2.8,2.3,3.5,3.8c0.9,1.9,1.4,4,1.3,6.1c0,3.9-1.8,7.7-4.8,10.2
	c-3.1,2.9-7.3,4.2-12.5,4.2s-9.4-1.2-12.6-3.7c-3.2-2.5-5-6.3-4.9-10.3h10.3c0.4,4.2,2.8,6.3,7.2,6.3c1.9,0.1,3.7-0.5,5.3-1.8
	c1.3-1.1,2-2.9,2-4.6c0-1.9-0.9-3.6-2.6-4.6c-1.9-1.1-3.9-2.1-6.1-2.5c-2.4-0.5-4.9-1.2-7.2-2c-2.4-0.7-4.6-2.2-6.1-4.1
	c-1.8-2.2-2.7-5-2.6-7.8c-0.1-4,1.7-8,4.8-10.4c3.2-2.6,7.2-3.9,12.2-3.9s9,1.1,12,3.4c3,2.3,4.7,5.7,5,10.3h-10.7
	c-0.1-1.7-0.8-3.2-2.1-4.3c-1.3-1.1-3-1.7-4.7-1.7C356.2,200.7,354.5,201.2,353.2,202.2z M383.7,201.1v-7.4h35.6v7.4h-13v40.6h-9.6
	V201h-12.9V201.1z M459.6,241.6l-3.1-9h-18.7l-3.1,9h-10.2l17.1-48.2h11.5l17,48.2H459.6z M440.3,225.3h13.8l-6.8-20.1L440.3,225.3z
	 M487.5,222.6v19h-9.7v-48h17.7c5.6,0,9.8,1.3,12.8,4.1c2.9,2.6,4.6,6.3,4.6,10.2c0,3-0.9,6-2.8,8.5c-1.9,2.6-4.8,4.4-8.7,5.4
	l12.4,19.8h-11.6l-11.5-19.1L487.5,222.6z M487.5,201V215h8c2.1,0.1,4-0.5,5.6-1.9c2.6-2.9,2.6-7.3,0-10.2c-1.6-1.3-3.5-2.1-5.6-1.9
	L487.5,201z M520.9,201v-7.4h35.6v7.4h-13v40.7h-9.6V201H520.9z M593,193.4v7.4h-18.1v12.6h16v7.4h-16v13.3H593v7.3h-27.7v-48.2H593
	z M613.8,222.5v19.1h-9.7v-48h17.7c5.6,0,9.8,1.3,12.8,4.1c2.9,2.6,4.6,6.3,4.6,10.2c0,3-0.9,6-2.8,8.5c-1.9,2.6-4.8,4.4-8.7,5.4
	l12.3,19.8h-11.5L617,222.5H613.8z M613.8,201V215h8c2.1,0.1,4-0.5,5.6-1.9c2.6-2.9,2.6-7.3,0-10.2c-1.6-1.3-3.5-2.1-5.6-1.9
	L613.8,201z"/>
<polygon class="st1" points="145.9,0 291.9,84.2 291.9,252.8 145.9,337 0,252.8 0,84.2 "/>
<path class="st2" d="M117.4,184.4v59.7h-27v-96.4h0.1v-43l55.2-32l55.2,32v64.1l-31.6,18.3L202,244l-31.6,0.4l-25.3-43.8
	L117.4,184.4z M145.6,104.6l-27.7,16v32.1l27.7,16l27.6-16v-32L145.6,104.6z"/>
</svg>
