<svg xmlns="http://www.w3.org/2000/svg" viewBox="0 0 641 337"><defs><style>.a{fill:#fff;}.b{fill:#4cefce;}</style></defs><title>green-white-text</title><path class="a" d="M358.5,143.8v28H341V99.9h28.4c8.3,0,14.8,2.2,19.5,6.5a20.56,20.56,0,0,1,7,15.6,22,22,0,0,1-3.8,12.2c-2.5,4-6.7,6.8-12.4,8.4l17.6,29.3H376.8l-16.2-28Zm0-30.6v17.3h10.9a8,8,0,0,0,8.6-7.4v-1.2a8.74,8.74,0,0,0-2.4-6.3,8.15,8.15,0,0,0-6.3-2.5Zm96.4,58.7-4-12.1H425.1l-4,12.1H402.5l25-72.1h21.3l24.9,72.1Zm-25.4-25.5h17L438,120.7Zm52.6-46.5h17.5v58.6h21.8v13.3H482V99.9Zm48.8,0h17.5v58.6h21.8v13.3H530.8V99.9Zm85.2,72H598.6V148.7L573.7,99.9h19.9l13.8,32.5,13.7-32.5H641l-24.9,48.8Z"/><path class="a" d="M353.2,202.21a5.21,5.21,0,0,0-1.86,4.14,6,6,0,0,0,1.35,4.14,8,8,0,0,0,3.52,2.28c1.55.52,3.21,1,4.86,1.45a50.83,50.83,0,0,1,5.28,1.55,29.1,29.1,0,0,1,4.86,2.17,8.94,8.94,0,0,1,3.52,3.83,12.54,12.54,0,0,1,1.35,6.1,13.55,13.55,0,0,1-4.76,10.24c-3.1,2.9-7.35,4.24-12.52,4.24s-9.42-1.24-12.62-3.72a12.6,12.6,0,0,1-4.86-10.35h10.35c.41,4.24,2.79,6.31,7.24,6.31a7.76,7.76,0,0,0,5.28-1.76,6,6,0,0,0,2-4.55,5.17,5.17,0,0,0-2.59-4.55,18.52,18.52,0,0,0-6.1-2.48c-2.38-.52-4.86-1.24-7.24-2a12.43,12.43,0,0,1-6.1-4.14,11.73,11.73,0,0,1-2.59-7.76,13,13,0,0,1,4.76-10.45A18.79,18.79,0,0,1,358.48,193c5,0,9,1.14,12,3.41s4.66,5.69,5,10.35H364.79a6.41,6.41,0,0,0-2.07-4.35,8.07,8.07,0,0,0-9.52-.21Zm30.52-1.14v-7.45h35.59v7.45h-13v40.56h-9.62V201H383.72Zm75.84,40.56-3.1-9H437.73l-3.1,9H424.38l17.07-48.21h11.48l17,48.21Zm-19.24-16.35h13.76l-6.83-20.07Zm47.18-2.69v19h-9.73v-48h17.69c5.59,0,9.83,1.35,12.83,4.14A13.71,13.71,0,0,1,512.84,208a14.14,14.14,0,0,1-2.79,8.48,14.36,14.36,0,0,1-8.69,5.38l12.42,19.76H502.19L490.7,222.49Zm0-21.62V215h8A7,7,0,0,0,501,202.93a7.37,7.37,0,0,0-5.59-1.86Zm33.42,0v-7.45H556.5V201h-13v40.66h-9.62V201ZM593,193.41v7.45H574.92v12.62h16v7.45h-16v13.35H593v7.35H565.3V193.41Zm20.8,29.07v19.14H604.1v-48h17.69c5.59,0,9.83,1.35,12.83,4.14A13.71,13.71,0,0,1,639.17,208a14.14,14.14,0,0,1-2.79,8.48,14.36,14.36,0,0,1-8.69,5.38L640,241.63H628.52L617,222.49Zm0-21.52V215h8a7,7,0,0,0,5.59-12.11,7.37,7.37,0,0,0-5.59-1.86Z"/><polygon class="b" points="145.9 0 291.9 84.2 291.9 252.8 145.9 337 0 252.8 0 84.2 145.9 0"/><path class="a" d="M117.4,184.4v59.7h-27V147.7h.1v-43l55.2-32,55.2,32v64.1l-31.6,18.3L202,244l-31.6.4-25.3-43.8Zm28.2-79.8-27.7,16v32.1l27.7,16,27.6-16v-32Z"/></svg>